<svg width="24" height="25" viewBox="0 0 24 25" fill="none" xmlns="http://www.w3.org/2000/svg">
<path fillRule="evenodd" clipRule="evenodd" d="M3.11775 13.0022C2.96075 12.7112 2.96075 12.3582 3.11775 12.0672C5.00975 8.56816 8.50475 5.53516 11.9998 5.53516C15.4948 5.53516 18.9898 8.56816 20.8818 12.0682C21.0388 12.3592 21.0388 12.7122 20.8818 13.0032C18.9898 16.5022 15.4948 19.5352 11.9998 19.5352C8.50475 19.5352 5.00975 16.5022 3.11775 13.0022Z" stroke="#252525" strokeWidth="1.5" stroke-linecap="round" stroke-linejoin="round"/>
<path d="M14.1213 10.4138C15.2929 11.5854 15.2929 13.4849 14.1213 14.6565C12.9497 15.828 11.0502 15.828 9.87868 14.6565C8.70711 13.4849 8.70711 11.5854 9.87868 10.4138C11.0502 9.24226 12.9497 9.24226 14.1213 10.4138" stroke="#252525" strokeWidth="1.4286" stroke-linecap="round" stroke-linejoin="round"/>
</svg>
