<svg width="879" height="640" viewBox="0 0 879 640" fill="none" xmlns="http://www.w3.org/2000/svg">
<rect width="879" height="640" fill="white" fill-opacity="0.5"/>
<rect x="0.75" y="0.75" width="877.5" height="638.5" stroke="#EBEBEB" stroke-width="1.5"/>
<path d="M400.275 375V363.364H404.536C405.362 363.364 406.045 363.5 406.587 363.773C407.129 364.042 407.534 364.407 407.803 364.869C408.072 365.328 408.206 365.845 408.206 366.42C408.206 366.905 408.117 367.314 407.939 367.648C407.761 367.977 407.523 368.242 407.223 368.443C406.928 368.64 406.602 368.784 406.246 368.875V368.989C406.632 369.008 407.009 369.133 407.377 369.364C407.748 369.591 408.055 369.915 408.297 370.335C408.54 370.756 408.661 371.267 408.661 371.869C408.661 372.464 408.521 372.998 408.24 373.472C407.964 373.941 407.536 374.314 406.956 374.591C406.377 374.864 405.636 375 404.735 375H400.275ZM402.03 373.494H404.564C405.405 373.494 406.007 373.331 406.371 373.006C406.735 372.68 406.917 372.273 406.917 371.784C406.917 371.417 406.824 371.08 406.638 370.773C406.453 370.466 406.187 370.222 405.843 370.04C405.502 369.858 405.096 369.767 404.627 369.767H402.03V373.494ZM402.03 368.398H404.382C404.776 368.398 405.131 368.322 405.445 368.17C405.763 368.019 406.015 367.807 406.201 367.534C406.39 367.258 406.485 366.932 406.485 366.557C406.485 366.076 406.316 365.672 405.979 365.347C405.642 365.021 405.125 364.858 404.428 364.858H402.03V368.398ZM410.607 375V366.273H412.249V367.659H412.34C412.499 367.189 412.779 366.82 413.181 366.551C413.586 366.278 414.044 366.142 414.556 366.142C414.662 366.142 414.787 366.146 414.931 366.153C415.078 366.161 415.194 366.17 415.277 366.182V367.807C415.209 367.788 415.088 367.767 414.914 367.744C414.739 367.718 414.565 367.705 414.391 367.705C413.989 367.705 413.632 367.79 413.317 367.96C413.007 368.127 412.76 368.36 412.578 368.659C412.397 368.955 412.306 369.292 412.306 369.67V375H410.607ZM420.196 375.176C419.337 375.176 418.596 374.992 417.975 374.625C417.357 374.254 416.88 373.733 416.543 373.062C416.21 372.388 416.043 371.598 416.043 370.693C416.043 369.799 416.21 369.011 416.543 368.33C416.88 367.648 417.35 367.116 417.952 366.733C418.558 366.35 419.266 366.159 420.077 366.159C420.569 366.159 421.047 366.241 421.509 366.403C421.971 366.566 422.386 366.822 422.753 367.17C423.121 367.519 423.41 367.972 423.623 368.528C423.835 369.081 423.941 369.754 423.941 370.545V371.148H417.003V369.875H422.276C422.276 369.428 422.185 369.032 422.003 368.688C421.821 368.339 421.566 368.064 421.236 367.864C420.91 367.663 420.528 367.562 420.088 367.562C419.611 367.562 419.194 367.68 418.838 367.915C418.486 368.146 418.213 368.449 418.02 368.824C417.831 369.195 417.736 369.598 417.736 370.034V371.028C417.736 371.612 417.838 372.108 418.043 372.517C418.251 372.926 418.541 373.239 418.912 373.455C419.283 373.667 419.717 373.773 420.213 373.773C420.535 373.773 420.829 373.727 421.094 373.636C421.359 373.542 421.588 373.402 421.782 373.216C421.975 373.03 422.123 372.801 422.225 372.528L423.833 372.818C423.704 373.292 423.473 373.706 423.14 374.062C422.81 374.415 422.395 374.689 421.895 374.886C421.399 375.08 420.833 375.176 420.196 375.176ZM428.365 375.193C427.812 375.193 427.312 375.091 426.865 374.886C426.418 374.678 426.064 374.377 425.803 373.983C425.545 373.589 425.417 373.106 425.417 372.534C425.417 372.042 425.511 371.636 425.701 371.318C425.89 371 426.146 370.748 426.468 370.562C426.79 370.377 427.15 370.237 427.547 370.142C427.945 370.047 428.35 369.975 428.763 369.926C429.286 369.866 429.71 369.816 430.036 369.778C430.362 369.737 430.598 369.67 430.746 369.58C430.894 369.489 430.968 369.341 430.968 369.136V369.097C430.968 368.6 430.828 368.216 430.547 367.943C430.271 367.67 429.858 367.534 429.309 367.534C428.737 367.534 428.286 367.661 427.956 367.915C427.631 368.165 427.405 368.443 427.28 368.75L425.684 368.386C425.873 367.856 426.15 367.428 426.513 367.102C426.881 366.773 427.303 366.534 427.78 366.386C428.257 366.235 428.759 366.159 429.286 366.159C429.634 366.159 430.004 366.201 430.394 366.284C430.788 366.364 431.155 366.511 431.496 366.727C431.841 366.943 432.123 367.252 432.343 367.653C432.562 368.051 432.672 368.568 432.672 369.205V375H431.013V373.807H430.945C430.835 374.027 430.67 374.242 430.451 374.455C430.231 374.667 429.949 374.843 429.604 374.983C429.259 375.123 428.846 375.193 428.365 375.193ZM428.735 373.83C429.204 373.83 429.606 373.737 429.939 373.551C430.276 373.366 430.532 373.123 430.706 372.824C430.884 372.521 430.973 372.197 430.973 371.852V370.727C430.913 370.788 430.795 370.845 430.621 370.898C430.451 370.947 430.256 370.991 430.036 371.028C429.816 371.062 429.602 371.095 429.394 371.125C429.185 371.152 429.011 371.174 428.871 371.193C428.542 371.235 428.24 371.305 427.968 371.403C427.699 371.502 427.483 371.644 427.32 371.83C427.161 372.011 427.081 372.254 427.081 372.557C427.081 372.977 427.237 373.295 427.547 373.511C427.858 373.723 428.254 373.83 428.735 373.83ZM436.498 372.04L436.486 369.966H436.782L440.259 366.273H442.293L438.327 370.477H438.06L436.498 372.04ZM434.935 375V363.364H436.634V375H434.935ZM440.446 375L437.321 370.852L438.492 369.665L442.532 375H440.446ZM448.39 369.347V370.818H443.23V369.347H448.39ZM450.79 375V363.364H458.086V364.875H452.546V368.42H457.705V369.926H452.546V373.489H458.154V375H450.79ZM467.76 366.273L464.596 375H462.777L459.607 366.273H461.431L463.641 372.989H463.732L465.936 366.273H467.76ZM472.821 375.176C471.962 375.176 471.221 374.992 470.6 374.625C469.982 374.254 469.505 373.733 469.168 373.062C468.835 372.388 468.668 371.598 468.668 370.693C468.668 369.799 468.835 369.011 469.168 368.33C469.505 367.648 469.975 367.116 470.577 366.733C471.183 366.35 471.891 366.159 472.702 366.159C473.194 366.159 473.672 366.241 474.134 366.403C474.596 366.566 475.011 366.822 475.378 367.17C475.746 367.519 476.035 367.972 476.248 368.528C476.46 369.081 476.566 369.754 476.566 370.545V371.148H469.628V369.875H474.901C474.901 369.428 474.81 369.032 474.628 368.688C474.446 368.339 474.191 368.064 473.861 367.864C473.535 367.663 473.153 367.562 472.713 367.562C472.236 367.562 471.819 367.68 471.463 367.915C471.111 368.146 470.838 368.449 470.645 368.824C470.456 369.195 470.361 369.598 470.361 370.034V371.028C470.361 371.612 470.463 372.108 470.668 372.517C470.876 372.926 471.166 373.239 471.537 373.455C471.908 373.667 472.342 373.773 472.838 373.773C473.16 373.773 473.454 373.727 473.719 373.636C473.984 373.542 474.213 373.402 474.407 373.216C474.6 373.03 474.748 372.801 474.85 372.528L476.458 372.818C476.329 373.292 476.098 373.706 475.765 374.062C475.435 374.415 475.02 374.689 474.52 374.886C474.024 375.08 473.458 375.176 472.821 375.176ZM480.15 369.818V375H478.451V366.273H480.081V367.693H480.189C480.39 367.231 480.704 366.86 481.132 366.58C481.564 366.299 482.108 366.159 482.763 366.159C483.358 366.159 483.879 366.284 484.326 366.534C484.773 366.78 485.119 367.148 485.365 367.636C485.612 368.125 485.735 368.729 485.735 369.449V375H484.036V369.653C484.036 369.021 483.871 368.527 483.542 368.17C483.212 367.811 482.759 367.631 482.184 367.631C481.79 367.631 481.439 367.716 481.132 367.886C480.829 368.057 480.589 368.307 480.411 368.636C480.237 368.962 480.15 369.356 480.15 369.818Z" fill="black"/>
<path d="M842.336 344.453C842.269 343.833 841.99 343.35 841.498 343.004C841.01 342.659 840.375 342.486 839.594 342.486C839.045 342.486 838.574 342.569 838.181 342.734C837.788 342.9 837.487 343.125 837.279 343.409C837.07 343.693 836.964 344.018 836.959 344.382C836.959 344.685 837.028 344.948 837.165 345.17C837.307 345.393 837.499 345.582 837.74 345.739C837.982 345.89 838.249 346.018 838.543 346.122C838.837 346.226 839.132 346.314 839.431 346.385L840.794 346.726C841.344 346.854 841.872 347.027 842.378 347.244C842.89 347.462 843.346 347.737 843.749 348.068C844.156 348.4 844.478 348.8 844.715 349.268C844.952 349.737 845.07 350.286 845.07 350.916C845.07 351.768 844.852 352.519 844.417 353.168C843.981 353.812 843.351 354.316 842.527 354.68C841.708 355.04 840.716 355.22 839.551 355.22C838.42 355.22 837.437 355.045 836.604 354.695C835.775 354.344 835.127 353.833 834.658 353.161C834.194 352.488 833.943 351.669 833.905 350.703H836.498C836.535 351.21 836.692 351.631 836.966 351.967C837.241 352.304 837.598 352.554 838.039 352.72C838.484 352.886 838.981 352.969 839.53 352.969C840.103 352.969 840.605 352.884 841.036 352.713C841.471 352.538 841.812 352.296 842.059 351.989C842.305 351.676 842.43 351.312 842.435 350.895C842.43 350.516 842.319 350.204 842.101 349.957C841.883 349.706 841.578 349.498 841.185 349.332C840.797 349.162 840.342 349.01 839.821 348.878L838.167 348.452C836.969 348.144 836.022 347.678 835.326 347.053C834.634 346.423 834.289 345.587 834.289 344.545C834.289 343.688 834.521 342.938 834.985 342.294C835.453 341.65 836.09 341.151 836.895 340.795C837.7 340.436 838.612 340.256 839.63 340.256C840.662 340.256 841.566 340.436 842.343 340.795C843.124 341.151 843.737 341.645 844.182 342.28C844.627 342.91 844.857 343.634 844.871 344.453H842.336Z" fill="#7D1E69"/>
<line x1="69.4961" y1="158.5" x2="819.496" y2="158.5" stroke="#84818A" stroke-opacity="0.42" stroke-linecap="square" stroke-dasharray="1 3"/>
<line x1="69.4961" y1="222.5" x2="819.496" y2="222.5" stroke="#EEEEEE" stroke-linecap="square" stroke-dasharray="2 2"/>
<line x1="69.4961" y1="286.5" x2="819.496" y2="286.5" stroke="#84818A" stroke-opacity="0.32" stroke-linecap="square" stroke-dasharray="1 3"/>
<line x1="69.4961" y1="414.5" x2="819.496" y2="414.5" stroke="#84818A" stroke-opacity="0.42" stroke-linecap="square" stroke-dasharray="1 3"/>
<line x1="69.4961" y1="478.5" x2="819.496" y2="478.5" stroke="#84818A" stroke-opacity="0.42" stroke-linecap="square" stroke-dasharray="1 3"/>
<line x1="69.4961" y1="542.5" x2="819.496" y2="542.5" stroke="#84818A" stroke-opacity="0.42" stroke-linecap="square" stroke-dasharray="1 3"/>
<line x1="69.4961" y1="606.5" x2="819.496" y2="606.5" stroke="#84818A" stroke-opacity="0.42" stroke-linecap="square" stroke-dasharray="1 3"/>
<line x1="379.492" y1="128.504" x2="375.196" y2="607.485" stroke="#84818A" stroke-opacity="0.42" stroke-linecap="square" stroke-dasharray="1 3"/>
<line x1="274.492" y1="128.504" x2="270.196" y2="607.485" stroke="#84818A" stroke-opacity="0.32" stroke-linecap="square" stroke-dasharray="1 3"/>
<line x1="169.344" y1="128.49" x2="169.344" y2="607.49" stroke="#84818A" stroke-opacity="0.32" stroke-linecap="square" stroke-dasharray="1 3"/>
<path fill-rule="evenodd" clip-rule="evenodd" d="M80.5233 128.5L70.997 112L61.4707 128.5H67.998V130L67.998 604V607H73.998V604L73.998 130V128.5H80.5233Z" fill="#84818A" fill-opacity="0.24"/>
<line x1="484.492" y1="128.504" x2="480.196" y2="607.485" stroke="#84818A" stroke-opacity="0.32" stroke-linecap="square" stroke-dasharray="1 3"/>
<line x1="589.492" y1="128.504" x2="585.196" y2="607.485" stroke="#84818A" stroke-opacity="0.32" stroke-linecap="square" stroke-dasharray="1 3"/>
<line x1="694.492" y1="128.504" x2="690.196" y2="607.485" stroke="#84818A" stroke-opacity="0.32" stroke-linecap="square" stroke-dasharray="1 3"/>
<line x1="799.492" y1="128.504" x2="795.196" y2="607.485" stroke="#84818A" stroke-opacity="0.32" stroke-linecap="square" stroke-dasharray="1 3"/>
<path fill-rule="evenodd" clip-rule="evenodd" d="M812.498 357.526L828.998 348L812.498 338.474V345H811.99H809.988H808.99H808.982H807.985H805.982H804.985H804.977H803.98H801.977H800.98H800.972H799.974H797.972H796.974H796.966H795.969H793.966H792.969H792.961H791.964H789.961H788.964H788.956H787.958H785.956H784.958H784.95H783.953H781.95H780.953H780.945H779.948H777.945H776.948H776.939H775.942H773.939H772.942H772.934H771.937H769.934H768.937H768.929H767.931H765.929H764.931H764.923H763.926H761.923H760.926H760.918H759.921H757.918H756.921H756.913H755.915H753.913H752.915H752.907H751.91H749.907H748.91H748.902H747.905H745.902H744.905H744.896H743.899H741.896H740.899H740.891H739.894H737.891H736.894H736.886H735.888H733.886H732.888H732.88H731.883H729.88H728.883H728.875H727.878H725.875H724.878H724.87H723.872H721.87H720.872H720.864H719.867H717.864H716.867H716.859H715.862H713.859H712.862H712.854H711.856H709.854H708.856H708.848H707.851H705.848H704.851H704.843H703.845H701.843H700.845H700.837H699.84H697.837H696.84H696.832H695.835H693.832H692.835H692.827H691.829H689.827H688.829H688.821H687.824H685.821H684.824H684.816H683.819H681.816H680.819H680.811H679.813H677.811H676.813H676.805H675.808H673.805H672.808H672.8H671.802H669.8H668.802H668.794H667.797H665.794H664.797H664.789H663.792H661.789H660.792H660.784H659.786H657.784H656.786H656.778H655.781H653.778H652.781H652.773H651.776H649.773H648.776H648.768H647.77H645.768H644.77H644.762H643.765H641.762H640.765H640.757H639.76H637.757H636.76H636.751H635.754H633.751H632.754H632.746H631.749H629.746H628.749H628.741H627.743H625.741H624.743H624.735H623.738H621.735H620.738H620.73H619.733H617.73H616.733H616.725H615.727H613.725H612.727H612.719H611.722H609.719H608.722H608.714H607.717H605.714H604.717H604.708H603.711H601.708H600.711H600.703H599.706H597.703H596.706H596.698H595.7H593.698H592.7H592.692H591.695H589.692H588.695H588.687H587.69H585.687H584.69H584.682H583.684H581.682H580.684H580.676H579.679H577.676H576.679H576.671H575.674H573.671H572.674H572.666H571.668H569.666H568.668H568.66H567.663H565.66H564.663H564.655H563.657H561.655H560.657H560.649H559.652H557.649H556.652H556.644H555.647H553.644H552.647H552.639H551.641H549.639H548.641H548.633H547.636H545.633H544.636H544.628H543.631H541.628H540.631H540.623H539.625H537.623H536.625H536.617H535.62H533.617H532.62H532.612H531.615H529.612H528.615H528.606H527.609H525.606H524.609H524.601H523.604H521.601H520.604H520.596H519.598H517.596H516.598H516.59H515.593H513.59H512.593H512.585H511.588H509.585H508.588H508.58H507.582H505.58H504.582H504.574H503.577H501.574H500.577H500.569H499.572H497.569H496.572H496.563H495.566H493.563H492.566H492.558H491.561H489.558H488.561H488.553H487.555H485.553H484.555H484.547H483.55H481.547H480.55H480.542H479.545H477.542H476.545H476.537H475.539H473.537H472.539H472.531H471.534H469.531H468.534H468.526H467.529H465.526H464.529H464.521H463.523H461.521H460.523H460.515H459.518H457.515H456.518H456.51H455.512H453.51H452.512H452.504H451.507H449.504H448.507H448.499H447.502H445.499H444.502H444.494H443.496H441.494H440.496H440.488H439.491H437.488H436.491H436.483H435.486H433.483H432.486H432.478H431.48H429.478H428.48H428.472H427.475H425.472H424.475H424.467H423.469H421.467H420.469H420.461H419.464H417.461H416.464H416.456H415.459H413.456H412.459H412.451H411.453H409.451H408.453H408.445H407.448H405.445H404.448H404.44H403.443H401.44H400.443H400.435H399.437H397.435H396.437H396.429H395.432H393.429H392.432H392.424H391.427H389.424H388.427H388.418H387.421H385.418H384.421H384.413H383.416H381.413H380.416H380.408H379.41H377.408H376.41H376.402H375.405H373.402H372.405H372.397H371.4H369.397H368.4H368.392H367.394H365.392H364.394H364.386H363.389H361.386H360.389H360.381H359.384H357.381H356.384H356.375H355.378H353.375H352.378H352.37H351.373H349.37H348.373H348.365H347.367H345.365H344.367H344.359H343.362H341.359H340.362H340.354H339.357H337.354H336.357H336.349H335.351H333.349H332.351H332.343H331.346H329.343H328.346H328.338H327.341H325.338H324.341H324.333H323.335H321.333H320.335H320.327H319.33H317.327H316.33H316.322H315.324H313.322H312.324H312.316H311.319H309.316H308.319H308.311H307.314H305.311H304.314H304.306H303.308H301.306H300.308H300.3H299.303H297.3H296.303H296.295H295.298H293.295H292.298H292.29H291.292H289.29H288.292H288.284H287.287H285.284H284.287H284.279H283.281H281.279H280.281H280.273H279.276H277.273H276.276H276.268H275.271H273.268H272.271H272.263H271.265H269.263H268.265H268.257H267.26H265.257H264.26H264.252H263.255H261.252H260.255H260.247H259.249H257.247H256.249H256.241H255.244H253.241H252.244H252.236H251.239H249.236H248.239H248.23H247.233H245.23H244.233H244.225H243.228H241.225H240.228H240.22H239.222H237.22H236.222H236.214H235.217H233.214H232.217H232.209H231.212H229.209H228.212H228.204H227.206H225.204H224.206H224.198H223.201H221.198H220.201H220.193H219.196H217.193H216.196H216.187H215.19H213.187H212.19H212.182H211.185H209.182H208.185H208.177H207.179H205.177H204.179H204.171H203.174H201.171H200.174H200.166H199.169H197.166H196.169H196.161H195.163H193.161H192.163H192.155H191.158H189.155H188.158H188.15H187.153H185.15H184.153H184.145H183.147H181.145H180.147H180.139H179.142H177.139H176.142H176.134H175.136H173.134H172.136H172.128H171.131H169.128H168.131H168.123H167.126H165.123H164.126H164.118H163.12H161.118H160.12H160.112H159.115H157.112H156.115H156.107H155.11H153.107H152.11H152.102H151.104H149.102H148.104H148.096H147.099H145.096H144.099H144.091H143.093H141.091H140.093H140.085H139.088H137.085H136.088H136.08H135.083H133.08H132.083H132.075H131.077H129.075H128.077H128.069H127.072H125.069H124.072H124.064H123.067H121.064H120.067H120.059H119.061H117.059H116.061H116.053H115.056H113.053H112.056H112.048H111.05H109.048H108.05H108.042H107.045H105.042H104.045H104.037H103.04H101.037H100.04H100.032H99.0343H97.0316H96.0343H96.0263H95.029H93.0263H92.029H92.0209H91.0236H89.0209H88.0236H88.0155H87.0182H85.0155H84.0182H84.0101H83.0128H81.0101H80.0128H80.0048H79.0075H77.0048H76.0075H75.9994H75.0021H72.9994H72.0021H71.998H68.998V351H71.998H72.0021H72.9994H75.0021H75.9994H76.0075H77.0048H79.0075H80.0048H80.0128H81.0101H83.0128H84.0101H84.0182H85.0155H87.0182H88.0155H88.0236H89.0209H91.0236H92.0209H92.029H93.0263H95.029H96.0263H96.0343H97.0316H99.0343H100.032H100.04H101.037H103.04H104.037H104.045H105.042H107.045H108.042H108.05H109.048H111.05H112.048H112.056H113.053H115.056H116.053H116.061H117.059H119.061H120.059H120.067H121.064H123.067H124.064H124.072H125.069H127.072H128.069H128.077H129.075H131.077H132.075H132.083H133.08H135.083H136.08H136.088H137.085H139.088H140.085H140.093H141.091H143.093H144.091H144.099H145.096H147.099H148.096H148.104H149.102H151.104H152.102H152.11H153.107H155.11H156.107H156.115H157.112H159.115H160.112H160.12H161.118H163.12H164.118H164.126H165.123H167.126H168.123H168.131H169.128H171.131H172.128H172.136H173.134H175.136H176.134H176.142H177.139H179.142H180.139H180.147H181.145H183.147H184.145H184.153H185.15H187.153H188.15H188.158H189.155H191.158H192.155H192.163H193.161H195.163H196.161H196.169H197.166H199.169H200.166H200.174H201.171H203.174H204.171H204.179H205.177H207.179H208.177H208.185H209.182H211.185H212.182H212.19H213.187H215.19H216.187H216.196H217.193H219.196H220.193H220.201H221.198H223.201H224.198H224.206H225.204H227.206H228.204H228.212H229.209H231.212H232.209H232.217H233.214H235.217H236.214H236.222H237.22H239.222H240.22H240.228H241.225H243.228H244.225H244.233H245.23H247.233H248.23H248.239H249.236H251.239H252.236H252.244H253.241H255.244H256.241H256.249H257.247H259.249H260.247H260.255H261.252H263.255H264.252H264.26H265.257H267.26H268.257H268.265H269.263H271.265H272.263H272.271H273.268H275.271H276.268H276.276H277.273H279.276H280.273H280.281H281.279H283.281H284.279H284.287H285.284H287.287H288.284H288.292H289.29H291.292H292.29H292.298H293.295H295.298H296.295H296.303H297.3H299.303H300.3H300.308H301.306H303.308H304.306H304.314H305.311H307.314H308.311H308.319H309.316H311.319H312.316H312.324H313.322H315.324H316.322H316.33H317.327H319.33H320.327H320.335H321.333H323.335H324.333H324.341H325.338H327.341H328.338H328.346H329.343H331.346H332.343H332.351H333.349H335.351H336.349H336.357H337.354H339.357H340.354H340.362H341.359H343.362H344.359H344.367H345.365H347.367H348.365H348.373H349.37H351.373H352.37H352.378H353.375H355.378H356.375H356.384H357.381H359.384H360.381H360.389H361.386H363.389H364.386H364.394H365.392H367.394H368.392H368.4H369.397H371.4H372.397H372.405H373.402H375.405H376.402H376.41H377.408H379.41H380.408H380.416H381.413H383.416H384.413H384.421H385.418H387.421H388.418H388.427H389.424H391.427H392.424H392.432H393.429H395.432H396.429H396.437H397.435H399.437H400.435H400.443H401.44H403.443H404.44H404.448H405.445H407.448H408.445H408.453H409.451H411.453H412.451H412.459H413.456H415.459H416.456H416.464H417.461H419.464H420.461H420.469H421.467H423.469H424.467H424.475H425.472H427.475H428.472H428.48H429.478H431.48H432.478H432.486H433.483H435.486H436.483H436.491H437.488H439.491H440.488H440.496H441.494H443.496H444.494H444.502H445.499H447.502H448.499H448.507H449.504H451.507H452.504H452.512H453.51H455.512H456.51H456.518H457.515H459.518H460.515H460.523H461.521H463.523H464.521H464.529H465.526H467.529H468.526H468.534H469.531H471.534H472.531H472.539H473.537H475.539H476.537H476.545H477.542H479.545H480.542H480.55H481.547H483.55H484.547H484.555H485.553H487.555H488.553H488.561H489.558H491.561H492.558H492.566H493.563H495.566H496.563H496.572H497.569H499.572H500.569H500.577H501.574H503.577H504.574H504.582H505.58H507.582H508.58H508.588H509.585H511.588H512.585H512.593H513.59H515.593H516.59H516.598H517.596H519.598H520.596H520.604H521.601H523.604H524.601H524.609H525.606H527.609H528.606H528.615H529.612H531.615H532.612H532.62H533.617H535.62H536.617H536.625H537.623H539.625H540.623H540.631H541.628H543.631H544.628H544.636H545.633H547.636H548.633H548.641H549.639H551.641H552.639H552.647H553.644H555.647H556.644H556.652H557.649H559.652H560.649H560.657H561.655H563.657H564.655H564.663H565.66H567.663H568.66H568.668H569.666H571.668H572.666H572.674H573.671H575.674H576.671H576.679H577.676H579.679H580.676H580.684H581.682H583.684H584.682H584.69H585.687H587.69H588.687H588.695H589.692H591.695H592.692H592.7H593.698H595.7H596.698H596.706H597.703H599.706H600.703H600.711H601.708H603.711H604.708H604.717H605.714H607.717H608.714H608.722H609.719H611.722H612.719H612.727H613.725H615.727H616.725H616.733H617.73H619.733H620.73H620.738H621.735H623.738H624.735H624.743H625.741H627.743H628.741H628.749H629.746H631.749H632.746H632.754H633.751H635.754H636.751H636.76H637.757H639.76H640.757H640.765H641.762H643.765H644.762H644.77H645.768H647.77H648.768H648.776H649.773H651.776H652.773H652.781H653.778H655.781H656.778H656.786H657.784H659.786H660.784H660.792H661.789H663.792H664.789H664.797H665.794H667.797H668.794H668.802H669.8H671.802H672.8H672.808H673.805H675.808H676.805H676.813H677.811H679.813H680.811H680.819H681.816H683.819H684.816H684.824H685.821H687.824H688.821H688.829H689.827H691.829H692.827H692.835H693.832H695.835H696.832H696.84H697.837H699.84H700.837H700.845H701.843H703.845H704.843H704.851H705.848H707.851H708.848H708.856H709.854H711.856H712.854H712.862H713.859H715.862H716.859H716.867H717.864H719.867H720.864H720.872H721.87H723.872H724.87H724.878H725.875H727.878H728.875H728.883H729.88H731.883H732.88H732.888H733.886H735.888H736.886H736.894H737.891H739.894H740.891H740.899H741.896H743.899H744.896H744.905H745.902H747.905H748.902H748.91H749.907H751.91H752.907H752.915H753.913H755.915H756.913H756.921H757.918H759.921H760.918H760.926H761.923H763.926H764.923H764.931H765.929H767.931H768.929H768.937H769.934H771.937H772.934H772.942H773.939H775.942H776.939H776.948H777.945H779.948H780.945H780.953H781.95H783.953H784.95H784.958H785.956H787.958H788.956H788.964H789.961H791.964H792.961H792.969H793.966H795.969H796.966H796.974H797.972H799.974H800.972H800.98H801.977H803.98H804.977H804.985H805.982H807.985H808.982H808.99H809.988H811.99H812.498V357.526Z" fill="#84818A" fill-opacity="0.24"/>
<path d="M379.126 223H74V345H482L379.126 223Z" fill="#69C77D" fill-opacity="0.32"/>
<path d="M73.9961 222.5H377.638C378.816 222.5 379.935 223.019 380.695 223.92L482.496 344.5" stroke="#69C77D" stroke-width="3"/>
<path d="M586.329 479L481.5 346H797.5V479H586.329Z" fill="#AD0000" fill-opacity="0.24"/>
<path d="M51 379.565L36.4545 379.565L36.4545 374.111C36.4545 372.993 36.6629 372.056 37.0795 371.298C37.4962 370.536 38.0691 369.961 38.7983 369.572C39.5227 369.179 40.3466 368.983 41.2699 368.983C42.2027 368.983 43.0312 369.179 43.7557 369.572C44.4801 369.965 45.0507 370.545 45.4673 371.312C45.8793 372.08 46.0852 373.024 46.0852 374.146L46.0852 377.761L43.919 377.761L43.919 374.501C43.919 373.848 43.8054 373.313 43.5781 372.896C43.3509 372.48 43.0384 372.172 42.6406 371.973C42.2429 371.769 41.786 371.668 41.2699 371.668C40.7538 371.668 40.2992 371.769 39.9062 371.973C39.5133 372.172 39.2079 372.482 38.9901 372.903C38.7675 373.32 38.6562 373.857 38.6562 374.516L38.6562 376.93L51 376.93L51 379.565ZM51 366.808L40.0909 366.808L40.0909 364.315L41.9091 364.315L41.9091 364.201C41.2794 364.002 40.794 363.662 40.4531 363.179C40.1075 362.691 39.9347 362.135 39.9347 361.51C39.9347 361.368 39.9418 361.209 39.956 361.034C39.9654 360.854 39.982 360.705 40.0057 360.586L42.3707 360.586C42.3329 360.695 42.2997 360.868 42.2713 361.105C42.2382 361.337 42.2216 361.562 42.2216 361.779C42.2216 362.248 42.3234 362.67 42.527 363.044C42.7259 363.413 43.0028 363.704 43.358 363.917C43.7131 364.13 44.1226 364.237 44.5866 364.237L51 364.237L51 366.808ZM51.2131 354.569C51.2131 355.634 50.9787 356.558 50.5099 357.339C50.0412 358.12 49.3854 358.726 48.5426 359.157C47.6998 359.583 46.715 359.796 45.5881 359.796C44.4612 359.796 43.474 359.583 42.6264 359.157C41.7789 358.726 41.1207 358.12 40.652 357.339C40.1832 356.558 39.9489 355.634 39.9489 354.569C39.9489 353.504 40.1832 352.58 40.652 351.799C41.1207 351.018 41.7789 350.414 42.6264 349.988C43.474 349.557 44.4612 349.342 45.5881 349.342C46.715 349.342 47.6998 349.557 48.5426 349.988C49.3854 350.414 50.0412 351.018 50.5099 351.799C50.9787 352.58 51.2131 353.504 51.2131 354.569ZM49.1534 354.555C49.1534 353.977 48.9948 353.494 48.6776 353.106C48.3556 352.718 47.9247 352.429 47.3849 352.239C46.8452 352.045 46.2438 351.948 45.581 351.948C44.9134 351.948 44.3097 352.045 43.7699 352.239C43.2254 352.429 42.7921 352.718 42.4702 353.106C42.1482 353.494 41.9872 353.977 41.9872 354.555C41.9872 355.147 42.1482 355.639 42.4702 356.032C42.7921 356.42 43.2254 356.711 43.7699 356.906C44.3097 357.095 44.9134 357.19 45.581 357.19C46.2438 357.19 46.8452 357.095 47.3849 356.906C47.9247 356.711 48.3556 356.42 48.6776 356.032C48.9948 355.639 49.1534 355.147 49.1534 354.555ZM40.0909 341.634L42.0795 341.634L42.0795 348.083L40.0909 348.083L40.0909 341.634ZM51 346.471L39.0611 346.471C38.3272 346.471 37.7164 346.319 37.2287 346.016C36.741 345.708 36.3764 345.296 36.1349 344.78C35.8935 344.264 35.7727 343.691 35.7727 343.061C35.7727 342.616 35.8082 342.221 35.8793 341.875C35.9503 341.53 36.0142 341.274 36.071 341.108L38.0597 341.62C38.0265 341.729 37.9934 341.866 37.9602 342.032C37.9223 342.197 37.9034 342.382 37.9034 342.586C37.9034 343.064 38.0194 343.402 38.2514 343.601C38.4787 343.795 38.8054 343.892 39.2315 343.892L51 343.892L51 346.471ZM51 339.62L40.0909 339.62L40.0909 337.049L51 337.049L51 339.62ZM38.5426 338.328C38.5426 338.735 38.4077 339.085 38.1378 339.379C37.8632 339.672 37.5341 339.819 37.1506 339.819C36.7623 339.819 36.4332 339.672 36.1633 339.379C35.8887 339.085 35.7514 338.735 35.7514 338.328C35.7514 337.916 35.8887 337.565 36.1633 337.277C36.4332 336.983 36.7623 336.836 37.1506 336.836C37.5341 336.836 37.8632 336.983 38.1378 337.277C38.4077 337.565 38.5426 337.916 38.5426 338.328ZM40.0909 328.958L42.0795 328.958L42.0795 335.229L40.0909 335.229L40.0909 328.958ZM37.4773 333.681L37.4773 331.11L47.7187 331.11C48.0644 331.11 48.3295 331.058 48.5142 330.954C48.6941 330.845 48.8172 330.703 48.8835 330.528C48.9498 330.353 48.983 330.158 48.983 329.945C48.983 329.784 48.9711 329.638 48.9474 329.505C48.9238 329.368 48.9025 329.263 48.8835 329.192L50.8935 328.759C50.9408 328.897 50.9929 329.093 51.0497 329.349C51.1065 329.6 51.1397 329.907 51.1491 330.272C51.1681 330.916 51.071 331.496 50.858 332.012C50.6401 332.528 50.304 332.938 49.8494 333.241C49.3949 333.539 48.8267 333.686 48.1449 333.681L37.4773 333.681ZM35.7727 320.87L53.1875 325.558L53.1875 327.809L35.7727 323.122L35.7727 320.87ZM36.4545 316.659L51 316.659L51 319.23L36.4545 319.23L36.4545 316.659ZM51.2131 309.256C51.2131 310.322 50.9787 311.245 50.5099 312.026C50.0412 312.808 49.3854 313.414 48.5426 313.844C47.6998 314.271 46.715 314.484 45.5881 314.484C44.4612 314.484 43.474 314.271 42.6264 313.844C41.7789 313.414 41.1207 312.808 40.652 312.026C40.1832 311.245 39.9489 310.322 39.9489 309.256C39.9489 308.191 40.1832 307.268 40.652 306.487C41.1207 305.705 41.7789 305.102 42.6264 304.675C43.474 304.245 44.4612 304.029 45.5881 304.029C46.715 304.029 47.6998 304.245 48.5426 304.675C49.3854 305.102 50.0412 305.705 50.5099 306.487C50.9787 307.268 51.2131 308.191 51.2131 309.256ZM49.1534 309.242C49.1534 308.665 48.9948 308.182 48.6776 307.793C48.3556 307.405 47.9247 307.116 47.3849 306.927C46.8452 306.733 46.2438 306.636 45.581 306.636C44.9133 306.636 44.3097 306.733 43.7699 306.927C43.2254 307.116 42.7921 307.405 42.4702 307.793C42.1482 308.182 41.9872 308.665 41.9872 309.242C41.9872 309.834 42.1482 310.326 42.4702 310.719C42.7921 311.108 43.2254 311.399 43.7699 311.593C44.3097 311.782 44.9133 311.877 45.581 311.877C46.2438 311.877 46.8452 311.782 47.3849 311.593C47.9247 311.399 48.3556 311.108 48.6776 310.719C48.9948 310.326 49.1534 309.834 49.1534 309.242ZM42.9744 293.225L43.2301 295.569C42.9934 295.635 42.7708 295.751 42.5625 295.917C42.3542 296.078 42.1861 296.295 42.0582 296.57C41.9304 296.845 41.8665 297.181 41.8665 297.578C41.8665 298.114 41.9825 298.563 42.2145 298.928C42.4465 299.288 42.7472 299.465 43.1165 299.461C43.4337 299.465 43.6918 299.349 43.8906 299.113C44.0895 298.871 44.2528 298.473 44.3807 297.919L44.7784 296.059C45.0009 295.026 45.3537 294.259 45.8366 293.757C46.3196 293.251 46.9517 292.995 47.733 292.99C48.4195 292.995 49.0256 293.196 49.5511 293.594C50.072 293.987 50.4792 294.534 50.7727 295.235C51.0663 295.935 51.2131 296.74 51.2131 297.65C51.2131 298.985 50.9337 300.06 50.375 300.874C49.8115 301.688 49.0279 302.174 48.0241 302.33L47.7827 299.823C48.2751 299.709 48.6468 299.468 48.8977 299.098C49.1487 298.729 49.2741 298.248 49.2741 297.657C49.2741 297.046 49.1487 296.556 48.8977 296.186C48.6468 295.812 48.3366 295.625 47.9673 295.625C47.6548 295.625 47.3968 295.746 47.1932 295.988C46.9896 296.224 46.8333 296.594 46.7244 297.096L46.3338 298.956C46.116 300.003 45.749 300.777 45.233 301.279C44.7121 301.781 44.054 302.029 43.2585 302.025C42.5862 302.029 42.0038 301.847 41.5114 301.478C41.0142 301.104 40.6307 300.585 40.3608 299.922C40.0862 299.255 39.9489 298.485 39.9489 297.614C39.9489 296.336 40.2211 295.329 40.7656 294.596C41.3101 293.857 42.0464 293.4 42.9744 293.225ZM42.9744 282.248L43.2301 284.592C42.9934 284.658 42.7708 284.774 42.5625 284.94C42.3542 285.101 42.1861 285.319 42.0582 285.593C41.9304 285.868 41.8665 286.204 41.8665 286.602C41.8665 287.137 41.9825 287.587 42.2145 287.951C42.4465 288.311 42.7472 288.489 43.1165 288.484C43.4337 288.489 43.6918 288.373 43.8906 288.136C44.0895 287.895 44.2528 287.497 44.3807 286.943L44.7784 285.082C45.0009 284.05 45.3537 283.283 45.8366 282.781C46.3196 282.274 46.9517 282.019 47.733 282.014C48.4195 282.019 49.0256 282.22 49.5511 282.618C50.072 283.011 50.4792 283.557 50.7727 284.258C51.0663 284.959 51.2131 285.764 51.2131 286.673C51.2131 288.008 50.9337 289.083 50.375 289.897C49.8115 290.712 49.0279 291.197 48.0241 291.353L47.7827 288.846C48.2751 288.733 48.6468 288.491 48.8977 288.122C49.1487 287.752 49.2741 287.272 49.2741 286.68C49.2741 286.069 49.1487 285.579 48.8977 285.21C48.6468 284.836 48.3366 284.649 47.9673 284.649C47.6548 284.649 47.3968 284.77 47.1932 285.011C46.9896 285.248 46.8333 285.617 46.7244 286.119L46.3338 287.98C46.116 289.026 45.749 289.8 45.233 290.302C44.7121 290.804 44.054 291.053 43.2585 291.048C42.5862 291.053 42.0038 290.87 41.5114 290.501C41.0142 290.127 40.6307 289.609 40.3608 288.946C40.0862 288.278 39.9489 287.509 39.9489 286.637C39.9489 285.359 40.2211 284.353 40.7656 283.619C41.3101 282.88 42.0464 282.423 42.9744 282.248Z" fill="#7D1E69"/>
<line x1="274.25" y1="233.056" x2="274.25" y2="339.847" stroke="#0074CC" stroke-width="2.5" stroke-linecap="square" stroke-dasharray="2 2"/>
<path d="M273.903 224L280.747 235.854H267.059L273.903 224Z" fill="#0074CC"/>
<path d="M274.098 345L280.942 333.146H267.254L274.098 345Z" fill="#0074CC"/>
<path d="M377.905 195.364L380.468 199.625H380.559L383.132 195.364H385.536L381.951 201.182L385.593 207H383.15L380.559 202.767H380.468L377.877 207H375.445L379.121 201.182L375.49 195.364H377.905Z" fill="black"/>
<path d="M483.496 345L586.295 475.97C587.053 476.936 588.213 477.5 589.441 477.5H796.996" stroke="#AD0000" stroke-width="3"/>
<line x1="482.996" y1="336" x2="482.996" y2="356" stroke="black" stroke-width="4" stroke-linecap="square" stroke-dasharray="2 2"/>
<line x1="379.996" y1="213" x2="379.996" y2="233" stroke="black" stroke-width="4" stroke-linecap="square" stroke-dasharray="2 2"/>
<path d="M171.386 284.182C171.386 285.424 171.159 286.492 170.705 287.386C170.25 288.277 169.627 288.962 168.835 289.443C168.047 289.92 167.152 290.159 166.148 290.159C165.14 290.159 164.241 289.92 163.449 289.443C162.661 288.962 162.04 288.275 161.585 287.381C161.131 286.487 160.903 285.42 160.903 284.182C160.903 282.939 161.131 281.873 161.585 280.983C162.04 280.089 162.661 279.403 163.449 278.926C164.241 278.445 165.14 278.205 166.148 278.205C167.152 278.205 168.047 278.445 168.835 278.926C169.627 279.403 170.25 280.089 170.705 280.983C171.159 281.873 171.386 282.939 171.386 284.182ZM169.648 284.182C169.648 283.235 169.494 282.437 169.188 281.79C168.884 281.138 168.468 280.646 167.938 280.312C167.411 279.975 166.814 279.807 166.148 279.807C165.477 279.807 164.879 279.975 164.352 280.312C163.826 280.646 163.409 281.138 163.102 281.79C162.799 282.437 162.648 283.235 162.648 284.182C162.648 285.129 162.799 285.928 163.102 286.58C163.409 287.227 163.826 287.72 164.352 288.057C164.879 288.39 165.477 288.557 166.148 288.557C166.814 288.557 167.411 288.39 167.938 288.057C168.468 287.72 168.884 287.227 169.188 286.58C169.494 285.928 169.648 285.129 169.648 284.182ZM173.439 293.273V281.273H175.098V282.688H175.24C175.339 282.506 175.481 282.295 175.666 282.057C175.852 281.818 176.109 281.61 176.439 281.432C176.768 281.25 177.204 281.159 177.746 281.159C178.45 281.159 179.079 281.337 179.632 281.693C180.185 282.049 180.619 282.562 180.933 283.233C181.251 283.903 181.411 284.71 181.411 285.653C181.411 286.597 181.253 287.405 180.939 288.08C180.625 288.75 180.193 289.267 179.643 289.631C179.094 289.991 178.467 290.17 177.763 290.17C177.232 290.17 176.799 290.081 176.462 289.903C176.128 289.725 175.867 289.517 175.678 289.278C175.488 289.04 175.342 288.828 175.24 288.642H175.138V293.273H173.439ZM175.104 285.636C175.104 286.25 175.193 286.788 175.371 287.25C175.549 287.712 175.806 288.074 176.143 288.335C176.481 288.593 176.893 288.722 177.382 288.722C177.89 288.722 178.314 288.587 178.655 288.318C178.996 288.045 179.253 287.676 179.428 287.21C179.606 286.744 179.695 286.22 179.695 285.636C179.695 285.061 179.607 284.544 179.433 284.085C179.263 283.627 179.005 283.265 178.661 283C178.32 282.735 177.893 282.602 177.382 282.602C176.89 282.602 176.473 282.729 176.132 282.983C175.795 283.237 175.539 283.591 175.365 284.045C175.191 284.5 175.104 285.03 175.104 285.636ZM187.388 281.273V282.636H182.621V281.273H187.388ZM183.899 279.182H185.598V287.438C185.598 287.767 185.647 288.015 185.746 288.182C185.844 288.345 185.971 288.456 186.126 288.517C186.286 288.574 186.458 288.602 186.643 288.602C186.78 288.602 186.899 288.593 187.001 288.574C187.104 288.555 187.183 288.54 187.24 288.528L187.547 289.932C187.448 289.97 187.308 290.008 187.126 290.045C186.945 290.087 186.717 290.11 186.445 290.114C185.998 290.121 185.581 290.042 185.195 289.875C184.808 289.708 184.496 289.451 184.257 289.102C184.018 288.754 183.899 288.316 183.899 287.79V279.182ZM189.267 290V281.273H190.966V290H189.267ZM190.125 279.926C189.83 279.926 189.576 279.828 189.364 279.631C189.155 279.43 189.051 279.191 189.051 278.915C189.051 278.634 189.155 278.396 189.364 278.199C189.576 277.998 189.83 277.898 190.125 277.898C190.42 277.898 190.672 277.998 190.881 278.199C191.093 278.396 191.199 278.634 191.199 278.915C191.199 279.191 191.093 279.43 190.881 279.631C190.672 279.828 190.42 279.926 190.125 279.926ZM196.928 290.176C196.109 290.176 195.395 289.989 194.786 289.614C194.176 289.239 193.702 288.714 193.365 288.04C193.028 287.366 192.859 286.578 192.859 285.676C192.859 284.771 193.028 283.979 193.365 283.301C193.702 282.623 194.176 282.097 194.786 281.722C195.395 281.347 196.109 281.159 196.928 281.159C197.746 281.159 198.46 281.347 199.07 281.722C199.679 282.097 200.153 282.623 200.49 283.301C200.827 283.979 200.996 284.771 200.996 285.676C200.996 286.578 200.827 287.366 200.49 288.04C200.153 288.714 199.679 289.239 199.07 289.614C198.46 289.989 197.746 290.176 196.928 290.176ZM196.933 288.75C197.464 288.75 197.903 288.61 198.251 288.33C198.6 288.049 198.857 287.676 199.024 287.21C199.195 286.744 199.28 286.231 199.28 285.67C199.28 285.114 199.195 284.602 199.024 284.136C198.857 283.667 198.6 283.29 198.251 283.006C197.903 282.722 197.464 282.58 196.933 282.58C196.399 282.58 195.956 282.722 195.604 283.006C195.255 283.29 194.996 283.667 194.825 284.136C194.659 284.602 194.575 285.114 194.575 285.67C194.575 286.231 194.659 286.744 194.825 287.21C194.996 287.676 195.255 288.049 195.604 288.33C195.956 288.61 196.399 288.75 196.933 288.75ZM204.591 284.818V290H202.892V281.273H204.523V282.693H204.631C204.831 282.231 205.146 281.86 205.574 281.58C206.006 281.299 206.549 281.159 207.205 281.159C207.799 281.159 208.32 281.284 208.767 281.534C209.214 281.78 209.561 282.148 209.807 282.636C210.053 283.125 210.176 283.729 210.176 284.449V290H208.477V284.653C208.477 284.021 208.313 283.527 207.983 283.17C207.653 282.811 207.201 282.631 206.625 282.631C206.231 282.631 205.881 282.716 205.574 282.886C205.271 283.057 205.03 283.307 204.852 283.636C204.678 283.962 204.591 284.356 204.591 284.818ZM216.825 290V278.364H220.973C221.878 278.364 222.628 278.528 223.223 278.858C223.818 279.187 224.263 279.638 224.558 280.21C224.854 280.778 225.001 281.419 225.001 282.131C225.001 282.847 224.852 283.491 224.553 284.062C224.257 284.631 223.81 285.081 223.212 285.415C222.617 285.744 221.869 285.909 220.967 285.909H218.115V284.42H220.808C221.38 284.42 221.844 284.322 222.2 284.125C222.556 283.924 222.818 283.652 222.984 283.307C223.151 282.962 223.234 282.57 223.234 282.131C223.234 281.691 223.151 281.301 222.984 280.96C222.818 280.619 222.554 280.352 222.195 280.159C221.839 279.966 221.369 279.869 220.786 279.869H218.581V290H216.825ZM226.923 290V281.273H228.565V282.659H228.656C228.815 282.189 229.096 281.82 229.497 281.551C229.902 281.278 230.361 281.142 230.872 281.142C230.978 281.142 231.103 281.146 231.247 281.153C231.395 281.161 231.51 281.17 231.594 281.182V282.807C231.526 282.788 231.404 282.767 231.23 282.744C231.056 282.718 230.882 282.705 230.707 282.705C230.306 282.705 229.948 282.79 229.634 282.96C229.323 283.127 229.077 283.36 228.895 283.659C228.713 283.955 228.622 284.292 228.622 284.67V290H226.923ZM233.064 290V281.273H234.763V290H233.064ZM233.922 279.926C233.626 279.926 233.373 279.828 233.161 279.631C232.952 279.43 232.848 279.191 232.848 278.915C232.848 278.634 232.952 278.396 233.161 278.199C233.373 277.998 233.626 277.898 233.922 277.898C234.217 277.898 234.469 277.998 234.678 278.199C234.89 278.396 234.996 278.634 234.996 278.915C234.996 279.191 234.89 279.43 234.678 279.631C234.469 279.828 234.217 279.926 233.922 279.926ZM240.724 290.176C239.88 290.176 239.152 289.985 238.543 289.602C237.937 289.216 237.471 288.684 237.145 288.006C236.819 287.328 236.656 286.551 236.656 285.676C236.656 284.79 236.823 284.008 237.156 283.33C237.49 282.648 237.959 282.116 238.565 281.733C239.171 281.35 239.885 281.159 240.707 281.159C241.37 281.159 241.961 281.282 242.48 281.528C242.999 281.771 243.418 282.112 243.736 282.551C244.058 282.991 244.249 283.504 244.31 284.091H242.656C242.565 283.682 242.357 283.33 242.031 283.034C241.709 282.739 241.277 282.591 240.736 282.591C240.262 282.591 239.848 282.716 239.491 282.966C239.139 283.212 238.865 283.564 238.668 284.023C238.471 284.477 238.372 285.015 238.372 285.636C238.372 286.273 238.469 286.822 238.662 287.284C238.855 287.746 239.128 288.104 239.48 288.358C239.836 288.612 240.255 288.739 240.736 288.739C241.058 288.739 241.349 288.68 241.611 288.562C241.876 288.441 242.098 288.269 242.276 288.045C242.457 287.822 242.584 287.553 242.656 287.239H244.31C244.249 287.803 244.065 288.307 243.759 288.75C243.452 289.193 243.041 289.542 242.526 289.795C242.014 290.049 241.414 290.176 240.724 290.176ZM249.888 290.176C249.028 290.176 248.287 289.992 247.666 289.625C247.049 289.254 246.571 288.733 246.234 288.062C245.901 287.388 245.734 286.598 245.734 285.693C245.734 284.799 245.901 284.011 246.234 283.33C246.571 282.648 247.041 282.116 247.643 281.733C248.25 281.35 248.958 281.159 249.768 281.159C250.261 281.159 250.738 281.241 251.2 281.403C251.662 281.566 252.077 281.822 252.445 282.17C252.812 282.519 253.102 282.972 253.314 283.528C253.526 284.081 253.632 284.754 253.632 285.545V286.148H246.695V284.875H251.967C251.967 284.428 251.876 284.032 251.695 283.688C251.513 283.339 251.257 283.064 250.928 282.864C250.602 282.663 250.219 282.562 249.78 282.562C249.303 282.562 248.886 282.68 248.53 282.915C248.178 283.146 247.905 283.449 247.712 283.824C247.522 284.195 247.428 284.598 247.428 285.034V286.028C247.428 286.612 247.53 287.108 247.734 287.517C247.943 287.926 248.232 288.239 248.604 288.455C248.975 288.667 249.409 288.773 249.905 288.773C250.227 288.773 250.52 288.727 250.786 288.636C251.051 288.542 251.28 288.402 251.473 288.216C251.666 288.03 251.814 287.801 251.916 287.528L253.524 287.818C253.395 288.292 253.164 288.706 252.831 289.062C252.501 289.415 252.087 289.689 251.587 289.886C251.09 290.08 250.524 290.176 249.888 290.176Z" fill="black"/>
<rect x="57" y="32" width="48" height="48" rx="4" fill="#CFEDD5" fill-opacity="0.5"/>
<path d="M64.5 52H82.4206C84.1402 52 85.7772 52.7378 86.9161 54.0263L97.5 66" stroke="#69C77D" stroke-width="2.5"/>
<path d="M142.075 51.2344C141.982 50.366 141.591 49.6899 140.902 49.206C140.219 48.7221 139.331 48.4801 138.237 48.4801C137.468 48.4801 136.809 48.5961 136.259 48.8281C135.708 49.0601 135.287 49.375 134.996 49.7727C134.704 50.1705 134.555 50.6245 134.548 51.1349C134.548 51.5592 134.644 51.9271 134.837 52.2386C135.036 52.5502 135.304 52.8153 135.642 53.0341C135.98 53.2462 136.355 53.4252 136.766 53.571C137.177 53.7169 137.591 53.8395 138.009 53.9389L139.918 54.4162C140.687 54.5952 141.426 54.8371 142.135 55.142C142.851 55.447 143.491 55.8314 144.054 56.2955C144.624 56.7595 145.075 57.3196 145.406 57.9759C145.738 58.6321 145.903 59.401 145.903 60.2827C145.903 61.4759 145.598 62.5265 144.989 63.4347C144.379 64.3362 143.497 65.0421 142.344 65.5526C141.197 66.0563 139.808 66.3082 138.178 66.3082C136.593 66.3082 135.218 66.063 134.051 65.5724C132.891 65.0819 131.983 64.366 131.327 63.4247C130.677 62.4834 130.326 61.3366 130.273 59.9844H133.902C133.955 60.6937 134.174 61.2836 134.558 61.7543C134.943 62.2249 135.443 62.5762 136.06 62.8082C136.683 63.0402 137.379 63.1562 138.148 63.1562C138.95 63.1562 139.652 63.0369 140.256 62.7983C140.866 62.553 141.343 62.215 141.688 61.7841C142.032 61.3466 142.208 60.8362 142.214 60.2528C142.208 59.7225 142.052 59.285 141.747 58.9403C141.442 58.589 141.015 58.2973 140.464 58.0653C139.921 57.8267 139.285 57.6146 138.555 57.429L136.239 56.8324C134.562 56.4015 133.236 55.7486 132.261 54.8736C131.294 53.992 130.81 52.822 130.81 51.3636C130.81 50.1638 131.134 49.1132 131.784 48.2116C132.44 47.3101 133.332 46.6108 134.459 46.1136C135.586 45.6098 136.862 45.358 138.287 45.358C139.732 45.358 140.998 45.6098 142.085 46.1136C143.179 46.6108 144.037 47.3035 144.661 48.1918C145.284 49.0734 145.605 50.0876 145.625 51.2344H142.075ZM152.632 57.0511V66H149.033V45.6364H152.553V53.3224H152.732C153.09 52.4607 153.643 51.7812 154.392 51.2841C155.148 50.7803 156.109 50.5284 157.276 50.5284C158.337 50.5284 159.261 50.7505 160.05 51.1946C160.839 51.6387 161.449 52.2884 161.88 53.1435C162.317 53.9986 162.536 55.0426 162.536 56.2756V66H158.936V56.8324C158.936 55.8049 158.671 55.0062 158.141 54.4361C157.617 53.8594 156.882 53.571 155.934 53.571C155.297 53.571 154.727 53.7102 154.223 53.9886C153.726 54.2604 153.335 54.6548 153.05 55.1719C152.772 55.6889 152.632 56.3153 152.632 57.0511ZM172.867 66.2983C171.375 66.2983 170.083 65.9702 168.989 65.3139C167.895 64.6577 167.047 63.7396 166.444 62.5597C165.847 61.3797 165.549 60.0009 165.549 58.4233C165.549 56.8456 165.847 55.4635 166.444 54.277C167.047 53.0904 167.895 52.169 168.989 51.5128C170.083 50.8565 171.375 50.5284 172.867 50.5284C174.358 50.5284 175.651 50.8565 176.745 51.5128C177.838 52.169 178.684 53.0904 179.28 54.277C179.883 55.4635 180.185 56.8456 180.185 58.4233C180.185 60.0009 179.883 61.3797 179.28 62.5597C178.684 63.7396 177.838 64.6577 176.745 65.3139C175.651 65.9702 174.358 66.2983 172.867 66.2983ZM172.887 63.4148C173.695 63.4148 174.372 63.1927 174.915 62.7486C175.459 62.2978 175.863 61.6946 176.128 60.9389C176.4 60.1832 176.536 59.3414 176.536 58.4134C176.536 57.4787 176.4 56.6335 176.128 55.8778C175.863 55.1155 175.459 54.509 174.915 54.0582C174.372 53.6075 173.695 53.3821 172.887 53.3821C172.058 53.3821 171.369 53.6075 170.819 54.0582C170.275 54.509 169.867 55.1155 169.596 55.8778C169.33 56.6335 169.198 57.4787 169.198 58.4134C169.198 59.3414 169.33 60.1832 169.596 60.9389C169.867 61.6946 170.275 62.2978 170.819 62.7486C171.369 63.1927 172.058 63.4148 172.887 63.4148ZM183.24 66V50.7273H186.73V53.2727H186.889C187.168 52.3911 187.645 51.7116 188.321 51.2344C189.004 50.7505 189.783 50.5085 190.658 50.5085C190.857 50.5085 191.079 50.5185 191.324 50.5384C191.576 50.5516 191.785 50.5748 191.95 50.608V53.919C191.798 53.866 191.556 53.8196 191.224 53.7798C190.9 53.7334 190.585 53.7102 190.28 53.7102C189.624 53.7102 189.034 53.8527 188.51 54.1378C187.993 54.4162 187.585 54.804 187.287 55.3011C186.989 55.7983 186.839 56.3717 186.839 57.0213V66H183.24ZM202.788 50.7273V53.5114H194.009V50.7273H202.788ZM196.176 47.0682H199.776V61.4062C199.776 61.8902 199.848 62.2614 199.994 62.5199C200.147 62.7718 200.346 62.9441 200.591 63.0369C200.836 63.1297 201.108 63.1761 201.406 63.1761C201.632 63.1761 201.837 63.1596 202.023 63.1264C202.215 63.0933 202.361 63.0634 202.46 63.0369L203.067 65.8509C202.875 65.9171 202.599 65.9901 202.241 66.0696C201.89 66.1491 201.459 66.1955 200.949 66.2088C200.047 66.2353 199.235 66.0994 198.513 65.8011C197.79 65.4962 197.217 65.0256 196.793 64.3892C196.375 63.7528 196.17 62.9574 196.176 62.0028V47.0682ZM219.406 66.2983C217.881 66.2983 216.572 65.9635 215.478 65.294C214.391 64.6245 213.553 63.6998 212.963 62.5199C212.379 61.3333 212.088 59.9678 212.088 58.4233C212.088 56.8722 212.386 55.5033 212.983 54.3168C213.579 53.1236 214.421 52.1955 215.508 51.5327C216.602 50.8632 217.895 50.5284 219.386 50.5284C220.626 50.5284 221.723 50.7571 222.677 51.2145C223.638 51.6652 224.404 52.3049 224.974 53.1335C225.544 53.9555 225.869 54.9167 225.949 56.017H222.508C222.369 55.2812 222.038 54.6681 221.514 54.1776C220.997 53.6804 220.304 53.4318 219.436 53.4318C218.7 53.4318 218.054 53.6307 217.497 54.0284C216.94 54.4195 216.506 54.983 216.194 55.7188C215.889 56.4545 215.737 57.3362 215.737 58.3636C215.737 59.4044 215.889 60.2992 216.194 61.0483C216.499 61.7907 216.927 62.3641 217.477 62.7685C218.034 63.1662 218.687 63.3651 219.436 63.3651C219.966 63.3651 220.44 63.2656 220.858 63.0668C221.282 62.8613 221.636 62.5663 221.922 62.1818C222.207 61.7973 222.402 61.33 222.508 60.7798H225.949C225.862 61.8603 225.544 62.8182 224.994 63.6534C224.444 64.482 223.695 65.1316 222.747 65.6023C221.799 66.0663 220.685 66.2983 219.406 66.2983ZM233.299 66.3082C232.331 66.3082 231.46 66.1359 230.684 65.7912C229.915 65.4399 229.305 64.9228 228.854 64.2401C228.41 63.5573 228.188 62.7154 228.188 61.7145C228.188 60.8527 228.347 60.1402 228.665 59.5767C228.984 59.0133 229.418 58.5625 229.968 58.2244C230.518 57.8864 231.138 57.6312 231.827 57.4588C232.523 57.2798 233.243 57.1506 233.985 57.071C234.88 56.9782 235.606 56.8954 236.163 56.8224C236.719 56.7429 237.124 56.6236 237.376 56.4645C237.634 56.2988 237.763 56.0436 237.763 55.6989V55.6392C237.763 54.8902 237.541 54.3101 237.097 53.8991C236.653 53.4882 236.013 53.2827 235.178 53.2827C234.297 53.2827 233.597 53.4749 233.08 53.8594C232.57 54.2438 232.225 54.6979 232.046 55.2216L228.685 54.7443C228.951 53.8163 229.388 53.0407 229.998 52.4176C230.608 51.7879 231.353 51.3172 232.235 51.0057C233.117 50.6875 234.091 50.5284 235.158 50.5284C235.894 50.5284 236.627 50.6146 237.356 50.7869C238.085 50.9593 238.751 51.2443 239.354 51.642C239.958 52.0331 240.442 52.5668 240.806 53.2429C241.177 53.919 241.363 54.7642 241.363 55.7784V66H237.903V63.902H237.783C237.565 64.3262 237.256 64.724 236.859 65.0952C236.468 65.4598 235.974 65.7547 235.377 65.9801C234.787 66.1989 234.094 66.3082 233.299 66.3082ZM234.234 63.6634C234.956 63.6634 235.583 63.5208 236.113 63.2358C236.643 62.9441 237.051 62.5597 237.336 62.0824C237.628 61.6051 237.773 61.0848 237.773 60.5213V58.7216C237.661 58.8144 237.469 58.9006 237.197 58.9801C236.932 59.0597 236.633 59.1293 236.302 59.1889C235.97 59.2486 235.642 59.3016 235.317 59.348C234.993 59.3944 234.711 59.4342 234.472 59.4673C233.935 59.5402 233.455 59.6596 233.031 59.8253C232.606 59.991 232.272 60.223 232.026 60.5213C231.781 60.813 231.658 61.1908 231.658 61.6548C231.658 62.3177 231.9 62.8182 232.384 63.1562C232.868 63.4943 233.485 63.6634 234.234 63.6634ZM248.582 45.6364V66H244.982V45.6364H248.582ZM255.882 45.6364V66H252.283V45.6364H255.882Z" fill="black"/>
<g clip-path="url(#clip0_103_91101)">
<path d="M741.637 42.6766C743.733 42.1128 745.695 41.5786 747.775 41C747.775 41.4451 747.775 41.727 747.775 42.0237C747.775 47.2463 747.775 52.4688 747.775 57.6914C747.775 58.3887 747.79 59.0712 747.835 59.7685C747.909 61.0593 748.281 62.2463 749.277 63.3591C747.211 63.8042 745.279 64.2196 743.227 64.6647C743.227 63.6855 743.227 62.8101 743.227 61.9347C743.168 61.905 743.094 61.8754 743.034 61.8605C742.796 62.1424 742.544 62.4243 742.306 62.7062C740.389 64.9614 737.178 65.3917 734.904 63.6706C733.924 62.9288 733.314 61.905 732.957 60.7478C732.274 58.5371 732.289 56.2967 733.121 54.1157C734.355 50.8961 737.074 49.1751 740.552 49.3234C741.37 49.3531 742.172 49.4718 743.064 49.5608C743.123 47.1721 743.317 44.7982 741.637 42.6766ZM743.094 56.9199C743.094 55.7033 743.168 54.4866 743.064 53.2849C743.005 52.4837 742.826 51.6677 742.499 50.9407C741.845 49.457 739.973 49.2047 738.873 50.3917C738.561 50.7329 738.249 51.1335 738.1 51.549C737.045 54.4421 736.911 57.4095 737.877 60.3323C738.605 62.5134 740.745 63.092 742.574 61.6677C742.841 61.4599 743.049 61.0297 743.064 60.6884C743.123 59.4421 743.094 58.181 743.094 56.9199Z" fill="#960E79"/>
<path d="M764.258 50.8516C766.294 50.2878 768.211 49.7537 770.233 49.1899C770.277 50.0653 770.322 50.8219 770.351 51.5934C770.47 51.6825 770.604 51.7566 770.723 51.8457C770.857 51.5786 770.946 51.2819 771.139 51.0742C773.487 48.4777 778.764 48.4184 780.413 53.0326C781.454 55.9406 781.424 58.8041 779.804 61.5193C778.808 63.181 777.277 64.2047 775.375 64.4718C774.037 64.6498 772.67 64.5311 771.318 64.5311C771.05 64.5311 770.782 64.4718 770.426 64.4273C770.396 66.6676 770.396 68.8338 771.035 71C769.014 71 767.082 71 765.075 71C765.224 70.2433 765.432 69.5311 765.506 68.8041C765.61 67.5727 765.685 66.3412 765.685 65.1098C765.714 62.3204 765.685 59.5163 765.699 56.727C765.729 54.6795 765.759 52.6469 764.258 50.8516ZM770.426 56.3115C770.426 57.3056 770.351 58.2997 770.441 59.2789C770.545 60.451 770.693 61.6231 770.991 62.7655C771.184 63.5074 771.734 64.1009 772.581 64.2789C773.755 64.5163 774.691 64.0118 775.271 62.8249C776.222 60.8664 776.267 58.7596 776.148 56.6676C776.088 55.6439 775.94 54.5905 775.583 53.6409C774.87 51.727 772.819 51.0148 771.005 51.9644C770.723 52.1127 770.455 52.543 770.441 52.8546C770.381 53.9822 770.426 55.1394 770.426 56.3115Z" fill="#960E79"/>
<path d="M718.288 52.3798C720.176 50.3027 722.509 49.2196 725.363 49.3383C726.047 49.368 726.76 49.4421 727.399 49.6647C728.96 50.1988 729.747 51.4748 729.762 53.3145C729.777 55.6588 729.762 58.0178 729.762 60.362C729.762 62.1424 730.297 62.5727 732.036 62.1721C731.709 63.3739 730.491 64.4125 729.093 64.5905C727.31 64.8131 725.764 64.4867 725.095 62.3798C724.783 62.7211 724.546 62.9585 724.308 63.1959C723.089 64.457 721.588 64.8724 719.894 64.5905C718.734 64.3976 717.932 63.7596 717.62 62.6172C717.263 61.3264 717.679 60.2137 718.571 59.2938C719.775 58.0326 721.395 57.4985 723 56.9792C723.52 56.816 724.07 56.7567 724.575 56.5638C724.783 56.4896 725.021 56.1929 725.051 55.9703C725.125 55.4807 725.095 54.9763 725.066 54.4867C724.991 52.7359 724.174 51.8457 722.42 51.8902C721.068 51.9199 719.7 52.2018 718.288 52.3798ZM725.066 57.0979C723.624 57.0979 722.034 58.27 721.707 59.5015C721.499 60.3027 721.514 61.089 722.153 61.7122C722.851 62.3798 723.698 62.4243 724.575 62.1128C724.783 62.0386 725.051 61.7567 725.051 61.5638C725.081 60.095 725.066 58.6113 725.066 57.0979Z" fill="#960E79"/>
<path d="M764.436 62.1869C763.678 63.7448 762.563 64.546 760.913 64.6499C759.249 64.7389 758 64.2047 757.183 62.3056C757.079 62.5282 757.005 62.7804 756.841 62.9585C755.712 64.2789 754.27 64.8279 752.546 64.6499C750.212 64.4125 749.068 62.0979 750.287 60.0801C751.045 58.8338 752.234 58.1217 753.542 57.6172C754.582 57.2166 755.652 56.9347 756.722 56.638C757.168 56.5193 757.406 56.3264 757.376 55.8368C757.346 55.3769 757.376 54.9021 757.361 54.4273C757.302 52.7359 756.544 51.8754 754.85 51.8902C753.631 51.905 752.412 52.2018 751.193 52.3798C751 52.4095 750.822 52.4837 750.465 52.6024C751.535 51.2374 752.784 50.4362 754.196 49.8724C755.712 49.2641 757.287 49.1899 758.877 49.4421C760.943 49.7685 762.028 51.0742 762.043 53.181C762.073 55.5846 762.043 57.9733 762.058 60.3769C762.043 62.0831 762.608 62.543 764.436 62.1869ZM757.361 57.1128C755.712 57.0386 753.913 58.7003 753.898 60.2285C753.883 61.8012 755.652 62.8398 757.034 62.0534C757.183 61.9792 757.346 61.7715 757.346 61.6083C757.361 60.1098 757.361 58.6113 757.361 57.1128Z" fill="#960E79"/>
<path d="M825.596 60.2433C825.016 62.0682 824.006 63.3294 822.415 64.0267C817.704 66.0593 811.937 63.5816 812.026 57.1424C812.071 53.908 813.364 51.267 816.441 49.9317C820.379 48.2107 824.749 50.0208 825.626 54.3976C825.834 55.4214 825.759 55.5252 824.734 55.5252C822.386 55.5252 820.022 55.5104 817.674 55.5104C816.723 55.5104 816.664 55.5994 816.812 56.5489C816.857 56.816 816.886 57.0831 816.946 57.3501C817.734 61.1929 821.613 62.7804 824.972 60.6439C825.135 60.5252 825.299 60.4362 825.596 60.2433ZM818.967 55.0653C818.967 55.0504 818.967 55.0356 818.967 55.0356C819.532 55.0356 820.112 55.0653 820.676 55.0208C820.855 55.0059 821.167 54.7834 821.167 54.6498C821.197 53.3145 821.286 51.9644 820.691 50.7181C820.067 49.3976 818.67 49.2938 817.808 50.4955C817.005 51.6083 816.931 52.9288 816.768 54.2196C816.693 54.8427 816.872 55.1543 817.57 55.0653C818.016 55.0208 818.492 55.0653 818.967 55.0653Z" fill="#960E79"/>
<path d="M791.382 62.6172C790.416 63.8635 789.287 64.4421 787.934 64.6054C787.295 64.6795 786.641 64.6795 786.017 64.6202C784.204 64.4273 782.985 63.2255 782.94 61.4006C782.851 58.0623 782.851 54.724 782.822 51.3858C782.807 50.0653 782.896 50.2433 781.662 50.2285C781.543 50.2285 781.424 50.2137 781.246 50.0505C783.267 48.7893 785.289 47.5134 787.518 46.1335C787.518 47.2018 787.548 48.0623 787.503 48.908C787.473 49.546 787.667 49.7982 788.336 49.7537C789.019 49.6944 789.718 49.724 790.416 49.7537C790.624 49.7537 790.847 49.8724 791.055 49.9318C791.041 50.0356 791.026 50.1395 791.011 50.2433C790.416 50.2433 789.822 50.2433 789.212 50.2433C788.841 50.2433 788.469 50.2582 788.098 50.2433C787.696 50.2285 787.503 50.3769 787.503 50.7923C787.518 54.1009 787.548 57.4095 787.548 60.7329C787.548 62.6024 788.96 63.27 790.699 62.8249C790.877 62.7804 791.041 62.7211 791.382 62.6172Z" fill="#960E79"/>
<path d="M798.516 49.7834C800.879 49.7834 803.168 49.7834 805.56 49.7834C804.698 51.8309 805.412 53.6558 806.125 55.4807C806.512 56.4451 806.868 57.4095 807.255 58.3887C807.329 58.5816 807.433 58.7597 807.612 59.1454C807.82 58.641 807.968 58.2997 808.102 57.9733C808.533 56.9496 808.964 55.9258 809.41 54.9021C810.123 53.2552 810.406 51.5935 809.469 49.8131C810.629 49.8131 811.669 49.8131 812.784 49.8131C812.293 50.5252 811.728 51.1484 811.387 51.8902C810.257 54.2789 809.202 56.7122 808.147 59.1306C807.448 60.7181 806.794 62.3205 806.14 63.9229C805.962 64.3531 805.709 64.635 805.263 64.4718C804.996 64.3828 804.698 64.1157 804.594 63.8635C802.96 59.9169 801.354 55.9555 799.719 51.9941C799.407 51.2374 798.947 50.5549 798.516 49.7834Z" fill="#960E79"/>
<path d="M798.264 64.2789C796.272 64.2789 794.34 64.2789 792.289 64.2789C792.467 63.3887 792.765 62.5282 792.794 61.6676C792.884 59.1009 792.958 56.5341 792.824 53.9673C792.765 52.9288 792.111 51.905 791.68 50.7923C793.538 50.2878 795.499 49.7388 797.536 49.1899C797.937 54.2641 797.015 59.2937 798.264 64.2789Z" fill="#960E79"/>
<path d="M794.859 47.1276C793.477 47.1424 792.362 46.0593 792.333 44.6647C792.303 43.2848 793.403 42.1573 794.77 42.1276C796.167 42.0979 797.386 43.2403 797.401 44.5905C797.43 45.9406 796.256 47.1127 794.859 47.1276Z" fill="#960E79"/>
</g>
<defs>
<clipPath id="clip0_103_91101">
<rect width="108.214" height="30" fill="white" transform="translate(717.5 41)"/>
</clipPath>
</defs>
</svg>
