<svg width="20" height="20" viewBox="0 0 20 20" fill="none" xmlns="http://www.w3.org/2000/svg">
                                                    <path d="M12.292 15.201L11.563 14.42L10.834 15.201" stroke="black" strokeWidth="1.5" strokeLinecap="round" strokeLinejoin="round"/>
                                                    <path d="M16.8341 17.9433C16.2871 18.3163 15.6291 18.5383 14.9171 18.5383C13.0271 18.5383 11.4951 17.0063 11.4951 15.1163C11.4951 14.8873 11.5191 14.6633 11.5621 14.4463" stroke="black" strokeWidth="1.5" strokeLinecap="round" strokeLinejoin="round"/>
                                                    <path d="M17.542 15.1022L18.271 15.8822L19 15.1022" stroke="black" strokeWidth="1.5" strokeLinecap="round" strokeLinejoin="round"/>
                                                    <path d="M12.999 12.3601C13.546 11.9871 14.204 11.7661 14.916 11.7661C16.806 11.7661 18.338 13.2981 18.338 15.1881C18.338 15.4171 18.314 15.6401 18.27 15.8581" stroke="black" strokeWidth="1.5" strokeLinecap="round" strokeLinejoin="round"/>
                                                    <path d="M13 1.53809V3.53809" stroke="black" strokeWidth="1.5" strokeLinecap="round" strokeLinejoin="round"/>
                                                    <path d="M5 1.53809V3.53809" stroke="black" strokeWidth="1.5" strokeLinecap="round" strokeLinejoin="round"/>
                                                    <path d="M1 6.53809H17" stroke="black" strokeWidth="1.5" strokeLinecap="round" strokeLinejoin="round"/>
                                                    <path d="M17 8.53809V4.53809C17 3.43309 16.105 2.53809 15 2.53809H3C1.895 2.53809 1 3.43309 1 4.53809V15.5381C1 16.6431 1.895 17.5381 3 17.5381H8" stroke="black" strokeWidth="1.5" strokeLinecap="round" strokeLinejoin="round"/>
                                                    <path d="M4.999 9.28809C4.861 9.28809 4.749 9.40009 4.75 9.53809C4.75 9.67609 4.862 9.78809 5 9.78809C5.138 9.78809 5.25 9.67609 5.25 9.53809C5.25 9.40009 5.138 9.28809 4.999 9.28809" stroke="black" strokeWidth="1.5" strokeLinecap="round" strokeLinejoin="round"/>
                                                    <path d="M4.999 13.2881C4.861 13.2881 4.749 13.4001 4.75 13.5381C4.75 13.6761 4.862 13.7881 5 13.7881C5.138 13.7881 5.25 13.6761 5.25 13.5381C5.25 13.4001 5.138 13.2881 4.999 13.2881" stroke="black" strokeWidth="1.5" strokeLinecap="round" strokeLinejoin="round"/>
                                                    <path d="M8.75 9.53908C8.75 9.67708 8.862 9.78908 9 9.78808C9.138 9.78808 9.25 9.67608 9.25 9.53808C9.25 9.40008 9.138 9.28808 9 9.28808C8.862 9.28808 8.75 9.40008 8.75 9.53908" stroke="black" strokeWidth="1.5" strokeLinecap="round" strokeLinejoin="round"/>
                                                    </svg>