<svg width="159" height="44" viewBox="0 0 159 44" fill="none" xmlns="http://www.w3.org/2000/svg">
<g clipPath="url(#clip0_0_263)">
<path d="M35.4005 2.45895C38.4741 1.63205 41.3515 0.848665 44.4032 0C44.4032 0.652819 44.4032 1.06627 44.4032 1.50148C44.4032 9.16123 44.4032 16.821 44.4032 24.4807C44.4032 25.5035 44.425 26.5045 44.4904 27.5272C44.5994 29.4204 45.1444 31.1612 46.6049 32.7933C43.5749 33.4461 40.7411 34.0554 37.7329 34.7082C37.7329 33.272 37.7329 31.9881 37.7329 30.7043C37.6457 30.6607 37.5367 30.6172 37.4496 30.5955C37.1008 31.0089 36.7302 31.4224 36.3814 31.8358C33.5694 35.1434 28.861 35.7745 25.5258 33.2502C24.0871 32.1622 23.1934 30.6607 22.6702 28.9634C21.6675 25.7211 21.6893 22.4352 22.91 19.2364C24.7193 14.5143 28.7084 11.9901 33.8092 12.2077C35.0081 12.2512 36.1852 12.4253 37.4932 12.5559C37.5803 9.05242 37.8637 5.57072 35.4005 2.45895ZM37.5367 23.3492C37.5367 21.5648 37.6457 19.7804 37.4932 18.0178C37.406 16.8427 37.1444 15.6459 36.6648 14.5796C35.7057 12.4036 32.9591 12.0336 31.346 13.7745C30.8882 14.275 30.4305 14.8625 30.2125 15.4718C28.6648 19.7151 28.4686 24.0673 29.8855 28.3541C30.9536 31.5529 34.0926 32.4016 36.7738 30.3126C37.1662 30.0079 37.4714 29.3769 37.4932 28.8764C37.5803 27.0485 37.5367 25.1988 37.5367 23.3492Z" fill="#7D1E69"/>
<path d="M68.5778 14.4492C71.5642 13.6222 74.3762 12.8389 77.3408 12.012C77.4062 13.2958 77.4715 14.4056 77.5151 15.5372C77.6895 15.6677 77.8857 15.7766 78.0601 15.9071C78.2563 15.5154 78.3871 15.0802 78.6705 14.7756C82.1146 10.9675 89.853 10.8804 92.2727 17.648C93.7986 21.913 93.755 26.1129 91.3789 30.095C89.9184 32.5322 87.6732 34.0337 84.883 34.4254C82.9212 34.6865 80.9157 34.5125 78.932 34.5125C78.5397 34.5125 78.1473 34.4254 77.6241 34.3601C77.5805 37.646 77.5805 40.823 78.5179 44.0001C75.5533 44.0001 72.7195 44.0001 69.7767 44.0001C69.9947 42.8903 70.2999 41.8458 70.4089 40.7795C70.5615 38.9734 70.6704 37.1673 70.6704 35.3611C70.714 31.2701 70.6704 27.1574 70.6922 23.0664C70.7358 20.0634 70.7794 17.0822 68.5778 14.4492ZM77.6241 22.4571C77.6241 23.915 77.5151 25.373 77.6459 26.8092C77.7985 28.5283 78.0165 30.2474 78.4525 31.9229C78.7359 33.011 79.5424 33.8814 80.7849 34.1425C82.507 34.4907 83.8803 33.7508 84.7304 32.01C86.1255 29.1376 86.1909 26.0476 86.0165 22.9793C85.9293 21.4778 85.7113 19.9328 85.1882 18.5402C84.1419 15.733 81.1337 14.6885 78.4743 16.0812C78.0601 16.2988 77.6677 16.9299 77.6459 17.3868C77.5587 19.0406 77.6241 20.738 77.6241 22.4571Z" fill="#7D1E69"/>
<path d="M1.15528 16.6904C3.92368 13.6439 7.34603 12.0554 11.5313 12.2295C12.5341 12.273 13.5804 12.3818 14.5177 12.7082C16.8065 13.4916 17.9619 15.363 17.9837 18.0613C18.0055 21.4995 17.9837 24.9595 17.9837 28.3976C17.9837 31.0089 18.7684 31.64 21.3188 31.0524C20.8393 32.815 19.0518 34.3383 17.0027 34.5994C14.3869 34.9258 12.1199 34.4471 11.139 31.3571C10.6812 31.8576 10.3324 32.2057 9.98364 32.5539C8.19617 34.4036 5.99453 35.0129 3.50951 34.5994C1.80923 34.3165 0.632114 33.3808 0.174347 31.7052C-0.348815 29.8121 0.261541 28.18 1.56945 26.8309C3.33512 24.9812 5.71115 24.1978 8.06538 23.4362C8.82832 23.1968 9.63486 23.1098 10.376 22.8269C10.6812 22.7181 11.03 22.2829 11.0736 21.9565C11.1826 21.2384 11.139 20.4985 11.0954 19.7804C10.9864 17.2127 9.78745 15.907 7.21524 15.9723C5.23158 16.0158 3.22613 16.4293 1.15528 16.6904ZM11.0954 23.6103C8.98091 23.6103 6.64848 25.3294 6.16891 27.1355C5.86374 28.3106 5.88553 29.4639 6.82287 30.3779C7.84739 31.3571 9.0899 31.4224 10.376 30.9654C10.6812 30.8566 11.0736 30.4431 11.0736 30.1602C11.1172 28.0059 11.0954 25.8299 11.0954 23.6103Z" fill="#7D1E69"/>
<path d="M68.8394 31.0742C67.7277 33.3591 66.0929 34.5341 63.6732 34.6865C61.2318 34.817 59.4007 34.0336 58.2018 31.2483C58.0492 31.5747 57.9403 31.9446 57.7005 32.2058C56.0438 34.1424 53.9293 34.9476 51.4007 34.6865C47.9784 34.3383 46.2999 30.9436 48.0874 27.9842C49.1991 26.1563 50.943 25.1118 52.8612 24.3719C54.3871 23.7844 55.9566 23.3709 57.5261 22.9357C58.18 22.7616 58.5288 22.4787 58.4852 21.7606C58.4416 21.0861 58.4852 20.3897 58.4634 19.6934C58.3762 17.2127 57.2645 15.9506 54.7795 15.9723C52.992 15.9941 51.2045 16.4293 49.4171 16.6904C49.1337 16.7339 48.8721 16.8427 48.349 17.0168C49.9184 15.0148 51.7495 13.8398 53.8203 13.0129C56.0438 12.1207 58.3544 12.0119 60.6868 12.3818C63.7168 12.8605 65.3081 14.7755 65.3299 17.8655C65.3735 21.3907 65.3299 24.8942 65.3517 28.4194C65.3299 30.9219 66.1582 31.5965 68.8394 31.0742ZM58.4634 23.6321C56.0438 23.5233 53.4062 25.9605 53.3844 28.2018C53.3626 30.5084 55.9566 32.0317 57.9838 30.8784C58.2018 30.7695 58.4416 30.4649 58.4416 30.2255C58.4634 28.0277 58.4634 25.8299 58.4634 23.6321Z" fill="#7D1E69"/>
<path d="M158.54 28.2234C157.69 30.9 156.207 32.7497 153.875 33.7724C146.965 36.7536 138.507 33.1196 138.638 23.6755C138.703 18.9317 140.6 15.0583 145.112 13.0998C150.889 10.5756 157.297 13.2304 158.583 19.6498C158.889 21.1512 158.78 21.3036 157.276 21.3036C153.831 21.3036 150.365 21.2818 146.921 21.2818C145.526 21.2818 145.439 21.4124 145.657 22.8051C145.722 23.1967 145.766 23.5884 145.853 23.9801C147.008 29.6161 152.698 31.9445 157.624 28.811C157.864 28.6369 158.104 28.5063 158.54 28.2234ZM148.818 20.629C148.818 20.6072 148.818 20.5855 148.818 20.5855C149.646 20.5855 150.496 20.629 151.325 20.5637C151.586 20.5419 152.044 20.2155 152.044 20.0197C152.088 18.0612 152.218 16.081 151.346 14.2531C150.431 12.3164 148.382 12.1641 147.117 13.9267C145.94 15.5588 145.831 17.4955 145.592 19.3886C145.483 20.3026 145.744 20.7596 146.769 20.629C147.423 20.5637 148.12 20.629 148.818 20.629Z" fill="#7D1E69"/>
<path d="M108.36 31.7054C106.943 33.5333 105.286 34.3819 103.303 34.6213C102.365 34.7301 101.406 34.7301 100.491 34.643C97.8314 34.3602 96.0439 32.5975 95.9785 29.921C95.8477 25.0248 95.8477 20.1287 95.8041 15.2326C95.7823 13.2959 95.9131 13.557 94.1038 13.5352C93.9294 13.5352 93.7551 13.5135 93.4935 13.2741C96.4581 11.4245 99.4226 9.55304 102.692 7.5293C102.692 9.09606 102.736 10.3582 102.671 11.5985C102.627 12.5342 102.91 12.9042 103.891 12.8389C104.894 12.7518 105.919 12.7954 106.943 12.8389C107.248 12.8389 107.575 13.013 107.88 13.1C107.859 13.2523 107.837 13.4047 107.815 13.557C106.943 13.557 106.071 13.557 105.177 13.557C104.632 13.557 104.087 13.5788 103.543 13.557C102.954 13.5352 102.671 13.7528 102.671 14.3621C102.692 19.2148 102.736 24.0674 102.736 28.9418C102.736 31.6836 104.807 32.6628 107.357 32.01C107.619 31.9447 107.859 31.8577 108.36 31.7054Z" fill="#7D1E69"/>
<path d="M118.823 12.8823C122.289 12.8823 125.646 12.8823 129.156 12.8823C127.891 15.8853 128.938 18.5619 129.984 21.2384C130.551 22.6529 131.074 24.0673 131.641 25.5035C131.75 25.7864 131.902 26.0475 132.164 26.6133C132.469 25.8734 132.687 25.3729 132.883 24.8942C133.515 23.3927 134.147 21.8912 134.801 20.3897C135.848 17.9743 136.262 15.5371 134.889 12.9258C136.589 12.9258 138.115 12.9258 139.75 12.9258C139.03 13.9704 138.202 14.8843 137.701 15.9723C136.044 19.4758 134.496 23.0445 132.948 26.5915C131.924 28.9199 130.965 31.2701 130.006 33.6202C129.744 34.2513 129.374 34.6647 128.72 34.4254C128.327 34.2948 127.891 33.9031 127.739 33.5332C125.341 27.7448 122.987 21.9348 120.589 16.1247C120.131 15.0149 119.455 14.0139 118.823 12.8823Z" fill="#7D1E69"/>
<path d="M118.453 34.1425C115.532 34.1425 112.698 34.1425 109.69 34.1425C109.951 32.8369 110.387 31.5748 110.431 30.3127C110.562 26.5481 110.671 22.7835 110.474 19.0189C110.387 17.4956 109.428 15.9942 108.796 14.3621C111.521 13.6222 114.398 12.8171 117.384 12.012C117.973 19.4541 116.621 26.831 118.453 34.1425Z" fill="#7D1E69"/>
<path d="M113.461 8.98724C111.433 9.009 109.799 7.42047 109.755 5.37497C109.711 3.35123 111.324 1.69743 113.33 1.65391C115.379 1.61038 117.166 3.28595 117.188 5.26617C117.232 7.24639 115.51 8.96548 113.461 8.98724Z" fill="#7D1E69"/>
</g>
<defs>
<clipPath id="clip0_0_263">
<rect width="158.714" height="44" fill="white"/>
</clipPath>
</defs>
</svg>
