<svg width="362" height="300" viewBox="0 0 362 300" fill="none" xmlns="http://www.w3.org/2000/svg">
<g clip-path="url(#clip0_58_643)">
<mask id="mask0_58_643" style="mask-type:luminance" maskUnits="userSpaceOnUse" x="1" y="0" width="361" height="300">
<path d="M361.404 0H1.4043V300H361.404V0Z" fill="white"/>
</mask>
<g mask="url(#mask0_58_643)">
<path d="M237.696 0.130797C237.957 0.261573 238.088 0.392349 238.219 0.653901C238.35 0.915452 238.35 1.177 238.219 1.43856L235.077 9.93899C234.947 10.2005 234.816 10.3313 234.554 10.4621C234.292 10.5929 234.03 10.5929 233.768 10.4621C233.507 10.3313 233.245 10.2005 233.245 9.93899C233.245 9.67744 233.114 9.41589 233.245 9.15434L236.387 0.653901C236.517 0.392349 236.648 0.261573 236.91 0.130797C237.172 2.08095e-05 237.434 2.08095e-05 237.696 0.130797ZM236.125 4.31563L242.67 6.66959L242.016 8.36968L235.47 6.01571L236.125 4.31563ZM244.241 2.48476C244.503 2.61554 244.765 2.74632 244.765 3.00787C244.896 3.26942 244.896 3.53097 244.765 3.79252L241.623 12.293C241.492 12.5545 241.361 12.6853 241.099 12.8161C240.837 12.9468 240.576 12.9468 240.314 12.8161C240.052 12.6853 239.921 12.5545 239.79 12.293C239.659 12.0314 239.659 11.7699 239.79 11.5083L242.932 3.00787C243.063 2.74632 243.194 2.61554 243.456 2.48476C243.717 2.35399 243.979 2.35399 244.241 2.48476Z" fill="#EC6763"/>
<path d="M245.288 13.7316C245.157 13.9931 245.027 14.1239 244.765 14.2547C244.503 14.3855 244.241 14.3855 243.979 14.2547C243.717 14.1239 243.587 13.9931 243.456 13.7316C243.325 13.47 243.325 13.2085 243.456 12.9469L245.943 6.93123C246.074 6.66968 246.205 6.53891 246.467 6.40813C246.728 6.27735 246.99 6.27735 247.252 6.40813C247.514 6.53891 247.645 6.66968 247.776 6.93123C247.907 7.19279 247.907 7.45434 247.776 7.71589L245.288 13.7316ZM247.645 5.4927C247.252 5.36192 247.121 5.23115 246.99 5.10037C246.859 4.96959 246.859 4.70804 246.99 4.44649L247.121 4.18494C247.252 3.92339 247.383 3.79261 247.645 3.66184C247.907 3.53106 248.037 3.66184 248.43 3.79261C248.823 3.92339 248.954 4.05416 249.085 4.18494C249.216 4.31571 249.216 4.57727 249.085 4.83882L248.954 5.23115C248.823 5.4927 248.692 5.62347 248.561 5.75425C248.299 5.75425 248.037 5.62347 247.645 5.4927Z" fill="#EC6763"/>
<path d="M253.405 9.02368C253.797 9.15445 254.19 9.416 254.452 9.67756C254.714 9.93911 254.976 10.2007 255.107 10.593C255.237 10.8545 255.368 11.1161 255.368 11.3776C255.368 11.6392 255.368 11.77 255.368 11.9007H254.976L255.499 10.8545C255.63 10.593 255.761 10.4622 256.023 10.3314C256.285 10.2007 256.547 10.2007 256.808 10.3314C257.07 10.4622 257.201 10.593 257.332 10.8545C257.463 11.1161 257.463 11.3776 257.332 11.6392L254.452 17.9164C254.059 18.7011 253.536 19.355 253.012 19.6165C252.488 19.8781 251.834 20.1396 251.048 20.0089C250.394 20.0089 249.739 19.7473 249.085 19.4857C248.954 19.355 248.692 19.2242 248.43 19.0934C248.168 18.9626 247.907 18.7011 247.645 18.5703C247.383 18.4395 247.252 18.178 247.121 18.0472C246.859 17.7857 246.728 17.5241 246.728 17.2626C246.728 17.001 246.728 16.8702 246.99 16.6087C247.252 16.3471 247.383 16.2164 247.645 16.2164C247.907 16.2164 248.038 16.3471 248.299 16.4779C248.43 16.6087 248.561 16.7395 248.692 16.8702C248.823 17.001 249.085 17.2626 249.347 17.3933C249.608 17.5241 249.739 17.7857 250.001 17.7857C250.656 18.178 251.31 18.178 251.834 18.0472C252.357 17.9164 252.619 17.6549 252.881 17.1318L253.405 15.9548L253.536 16.2164C253.536 16.3471 253.405 16.4779 253.143 16.6087C252.881 16.7395 252.619 16.8702 252.357 16.8702C252.096 17.001 251.703 17.001 251.31 17.001C250.917 17.001 250.656 16.8702 250.263 16.7395C249.608 16.4779 249.085 15.9548 248.692 15.4317C248.299 14.9086 248.037 14.1239 248.037 13.4701C248.037 12.6854 248.168 12.0315 248.561 11.2469C248.954 10.4622 249.347 9.80833 250.001 9.416C250.525 9.02368 251.179 8.63135 251.965 8.63135C252.096 8.63135 252.75 8.63135 253.405 9.02368ZM253.012 10.7238C252.619 10.4622 252.096 10.4622 251.703 10.4622C251.31 10.4622 250.917 10.7238 250.525 10.9853C250.132 11.2469 249.87 11.6392 249.739 12.0315C249.477 12.4238 249.477 12.947 249.477 13.3393C249.477 13.7316 249.608 14.1239 249.87 14.5163C250.132 14.9086 250.394 15.1701 250.918 15.3009C251.31 15.5625 251.834 15.5625 252.227 15.5625C252.619 15.5625 253.012 15.3009 253.405 15.0394C253.797 14.7778 254.059 14.3855 254.19 13.9932C254.452 13.6008 254.452 13.0777 254.452 12.6854C254.452 12.2931 254.321 11.9007 254.059 11.5084C253.797 11.1161 253.405 10.8545 253.012 10.7238Z" fill="#EC6763"/>
<path d="M263.484 13.9931C264.138 14.3855 264.531 14.7778 264.793 15.1701C264.924 15.6932 265.055 16.0856 264.924 16.7394C264.793 17.2625 264.531 17.7856 264.269 18.4395L262.436 21.9705C262.306 22.232 262.175 22.3628 261.913 22.4936C261.651 22.6244 261.389 22.4936 261.127 22.3628C260.866 22.232 260.735 22.1013 260.604 21.8397C260.473 21.5781 260.604 21.3166 260.735 21.055L262.567 17.5241C262.698 17.2625 262.829 16.8702 262.829 16.6087C262.829 16.3471 262.829 16.0856 262.698 15.824C262.567 15.5625 262.306 15.3009 262.044 15.1701C261.651 15.0394 261.389 14.9086 260.996 14.9086C260.604 14.9086 260.342 15.0394 260.08 15.1701C259.818 15.3009 259.557 15.5625 259.426 15.9548L257.593 19.4857C257.462 19.7473 257.331 19.8781 257.069 20.0088C256.807 20.1396 256.546 20.0088 256.284 19.8781C256.022 19.7473 255.891 19.6165 255.76 19.355C255.629 19.0934 255.76 18.8319 255.891 18.5703L260.473 9.93909C260.604 9.67754 260.735 9.54676 260.996 9.41599C261.258 9.28521 261.52 9.41599 261.782 9.54676C262.044 9.67754 262.175 9.80831 262.306 10.0699C262.437 10.3314 262.306 10.593 262.175 10.8545L260.342 14.2547L260.211 14.1239C260.342 13.9931 260.604 13.8624 260.866 13.8624C261.127 13.7316 261.389 13.7316 261.651 13.6008C261.913 13.6008 262.306 13.6008 262.567 13.6008C262.829 13.6008 263.222 13.8624 263.484 13.9931Z" fill="#EC6763"/>
<path d="M361.273 175.763C361.273 176.025 361.142 176.286 361.011 176.417C360.88 176.548 360.618 176.678 360.356 176.678C360.226 176.678 360.095 176.678 359.964 176.548L350.931 172.624C350.669 172.494 350.538 172.363 350.407 172.232C350.276 172.101 350.276 171.84 350.276 171.709C350.276 171.578 350.407 171.317 350.407 171.186C350.538 171.055 350.669 170.924 350.8 170.793L359.964 167.001C359.964 167.001 360.095 167.001 360.226 167.001C360.356 167.001 360.356 167.001 360.356 167.001C360.618 167.001 360.88 167.132 361.011 167.393C361.142 167.655 361.273 167.786 361.273 168.047C361.273 168.44 361.011 168.701 360.618 168.963L352.502 172.363V171.84L360.618 175.109C361.011 175.109 361.273 175.371 361.273 175.763Z" fill="#7F1416"/>
<path d="M349.753 181.517C349.753 180.602 350.015 179.817 350.407 179.294C350.8 178.64 351.324 178.248 351.978 177.855C352.633 177.594 353.418 177.463 354.204 177.463C355.12 177.463 355.906 177.725 356.56 178.248C357.215 178.64 357.738 179.163 358 179.817C358.262 180.471 358.393 181.125 358.393 181.779C358.393 182.302 358.262 182.825 358 183.217C357.738 183.74 357.476 184.133 356.953 184.394C356.56 184.787 356.036 185.048 355.513 185.179C354.989 185.31 354.466 185.44 353.942 185.44C353.68 185.44 353.549 185.31 353.287 185.048C353.156 184.787 353.026 184.656 353.156 184.394L353.549 178.379L355.12 177.986L354.727 183.74L354.466 183.348H354.858C355.12 183.348 355.382 183.217 355.644 183.087C355.906 182.956 356.167 182.694 356.298 182.433C356.429 182.171 356.56 181.91 356.56 181.517C356.56 181.256 356.56 180.863 356.429 180.602C356.298 180.34 356.298 180.079 356.036 179.817C355.906 179.556 355.644 179.425 355.251 179.294C354.858 179.163 354.466 179.032 353.942 179.032C353.418 179.032 352.895 179.032 352.502 179.294C352.109 179.556 351.716 179.817 351.586 180.079C351.324 180.471 351.193 180.863 351.193 181.256C351.193 181.648 351.193 181.91 351.193 182.171C351.193 182.433 351.324 182.563 351.324 182.694C351.455 182.825 351.455 182.956 351.586 183.087C351.716 183.217 351.716 183.479 351.716 183.61C351.716 183.871 351.586 184.002 351.455 184.133C351.324 184.263 351.062 184.394 350.931 184.263C350.669 184.263 350.407 184.133 350.146 183.74C349.884 183.479 349.753 183.087 349.622 182.563C349.753 182.563 349.622 182.04 349.753 181.517Z" fill="#7F1416"/>
<path d="M349.36 187.664C349.36 187.402 349.491 187.14 349.753 187.01C350.015 186.879 350.146 186.748 350.407 186.879L356.822 187.664C357.084 187.664 357.346 187.794 357.476 188.056C357.607 188.317 357.738 188.448 357.738 188.71C357.738 188.971 357.607 189.233 357.346 189.364C357.084 189.494 356.953 189.625 356.691 189.494L355.251 189.364H356.298C356.56 189.494 356.691 189.625 356.953 189.887C357.084 190.148 357.215 190.279 357.346 190.541C357.476 190.802 357.476 191.064 357.607 191.325C357.607 191.587 357.607 191.848 357.607 192.11C357.607 192.371 357.476 192.633 357.215 192.895C356.953 193.025 356.822 193.156 356.56 193.156C356.167 193.156 356.036 193.025 355.906 192.764C355.775 192.633 355.775 192.371 355.775 192.11C355.775 191.848 355.906 191.718 355.906 191.587C356.036 191.456 356.036 191.194 356.036 191.064C356.036 190.933 356.036 190.671 355.906 190.541C355.775 190.279 355.775 190.148 355.513 190.018C355.382 189.887 355.12 189.625 354.858 189.494C354.596 189.364 354.335 189.233 353.942 189.233L350.276 188.841C350.015 188.841 349.753 188.71 349.622 188.448C349.36 188.056 349.36 187.925 349.36 187.664Z" fill="#7F1416"/>
<path d="M356.036 200.872C356.036 201.134 355.906 201.395 355.644 201.526C355.382 201.657 355.251 201.787 354.989 201.657L348.445 200.61C347.528 200.48 346.742 200.218 346.218 199.695C345.695 199.303 345.433 198.649 345.171 198.126C345.04 197.472 345.04 196.818 345.171 196.033C345.171 195.641 345.302 195.379 345.433 194.987C345.564 194.595 345.695 194.333 345.826 194.072C345.956 193.81 346.218 193.549 346.48 193.549C346.742 193.418 346.873 193.418 347.135 193.549C347.396 193.679 347.658 193.81 347.658 194.072C347.789 194.333 347.658 194.464 347.658 194.725C347.527 194.856 347.527 195.118 347.266 195.379C347.135 195.641 347.005 195.902 347.005 196.295C346.873 196.818 346.873 197.21 347.005 197.472C347.135 197.864 347.267 198.126 347.528 198.256C347.79 198.518 348.182 198.649 348.706 198.649L349.753 198.78L349.36 199.041C349.098 198.78 348.836 198.518 348.575 198.256C348.444 197.995 348.314 197.603 348.183 197.21C348.183 196.818 348.183 196.426 348.183 195.902C348.314 195.379 348.445 194.856 348.837 194.595C349.099 194.202 349.622 193.941 350.015 193.81C350.538 193.679 351.063 193.679 351.587 193.679L356.167 194.464C356.429 194.464 356.691 194.595 356.822 194.856C356.953 195.118 357.085 195.249 356.954 195.51C356.954 195.772 356.823 196.033 356.561 196.164C356.299 196.295 356.168 196.426 355.907 196.295L351.978 195.641C351.324 195.51 350.8 195.641 350.538 195.902C350.276 196.164 350.016 196.556 349.885 197.079C349.885 197.472 349.885 197.733 349.885 197.995C350.016 198.256 350.146 198.518 350.407 198.649C350.669 198.78 350.932 198.91 351.325 199.041L355.252 199.695C355.514 199.695 355.776 199.826 355.907 200.087C356.037 200.349 356.036 200.48 356.036 200.872Z" fill="#7F1416"/>
<path d="M355.121 217.088C354.99 217.35 354.859 217.611 354.728 217.742C354.467 217.873 354.205 217.873 353.943 217.873L345.172 215.65C344.91 215.65 344.648 215.388 344.518 215.257C344.387 214.996 344.387 214.734 344.387 214.473C344.387 214.211 344.648 214.08 344.779 213.95C345.041 213.819 345.303 213.819 345.565 213.819L354.336 216.042C354.598 216.042 354.859 216.303 354.99 216.434C355.121 216.565 355.121 216.827 355.121 217.088ZM356.692 210.288C356.692 210.549 356.43 210.68 356.299 210.811C356.038 210.942 355.776 210.942 355.514 210.942L346.743 208.718C346.481 208.588 346.219 208.457 346.088 208.326C345.957 208.065 345.958 207.803 345.958 207.541C346.088 207.28 346.219 207.018 346.35 206.888C346.612 206.757 346.874 206.757 347.136 206.757L355.907 208.98C356.168 209.111 356.43 209.242 356.561 209.372C356.823 209.765 356.823 210.026 356.692 210.288ZM352.372 209.111L350.67 215.911L348.968 215.519L350.67 208.718L352.372 209.111Z" fill="#7F1416"/>
<path d="M343.994 219.311C343.732 219.181 343.601 219.05 343.47 218.919C343.339 218.657 343.339 218.396 343.339 218.134C343.47 217.873 343.601 217.742 343.732 217.611C343.994 217.48 344.256 217.48 344.517 217.611L350.801 219.442C351.063 219.573 351.194 219.704 351.325 219.834C351.456 220.096 351.456 220.358 351.456 220.619C351.325 220.881 351.194 221.011 351.063 221.142C350.801 221.273 350.539 221.273 350.277 221.142L343.994 219.311ZM352.372 220.75C352.503 220.358 352.634 220.227 352.765 220.096C352.896 219.965 353.157 219.965 353.419 220.096L353.681 220.227C353.943 220.358 354.205 220.488 354.205 220.619C354.205 220.75 354.205 221.011 354.205 221.404C354.074 221.796 353.943 221.927 353.812 222.058C353.681 222.188 353.419 222.188 353.157 222.058L352.896 221.927C352.634 221.796 352.372 221.665 352.372 221.535C352.241 221.404 352.241 221.142 352.372 220.75Z" fill="#7F1416"/>
<path d="M349.492 226.766C349.361 227.158 349.099 227.55 348.968 227.812C348.707 228.073 348.445 228.335 348.183 228.597C347.921 228.727 347.659 228.858 347.397 228.989C347.136 229.12 347.005 229.12 346.874 228.989V228.597L347.921 228.989C348.183 229.12 348.314 229.25 348.445 229.512C348.576 229.774 348.576 230.035 348.445 230.297C348.314 230.558 348.183 230.689 347.921 230.82C347.659 230.951 347.398 230.951 347.136 230.82L340.459 228.597C339.543 228.335 339.019 227.943 338.627 227.289C338.234 226.635 337.972 226.112 337.972 225.458C337.972 224.804 338.103 224.15 338.234 223.366C338.365 223.104 338.365 222.973 338.627 222.581C338.758 222.319 338.888 222.058 339.15 221.796C339.281 221.535 339.412 221.273 339.543 221.142C339.805 220.881 340.067 220.75 340.197 220.75C340.328 220.75 340.59 220.75 340.852 220.881C341.114 221.012 341.245 221.273 341.245 221.535C341.245 221.796 341.245 221.927 341.114 222.189C341.114 222.319 340.983 222.45 340.721 222.581C340.59 222.842 340.328 222.973 340.197 223.235C340.067 223.496 339.936 223.758 339.805 223.889C339.543 224.673 339.543 225.196 339.674 225.719C339.805 226.112 340.198 226.504 340.721 226.635L342.03 227.027L341.899 227.158C341.768 227.158 341.637 227.027 341.507 226.766C341.376 226.635 341.245 226.373 341.114 225.981C340.983 225.719 340.983 225.327 340.983 225.066C340.983 224.673 340.983 224.412 341.114 224.019C341.376 223.366 341.768 222.712 342.292 222.319C342.816 221.927 343.47 221.535 344.256 221.535C345.041 221.404 345.696 221.535 346.612 221.796C347.398 222.058 348.052 222.45 348.576 222.973C349.099 223.496 349.361 224.15 349.623 224.804C349.885 225.458 349.754 226.112 349.492 226.766ZM347.79 226.504C347.921 226.112 347.921 225.589 347.921 225.196C347.79 224.804 347.659 224.412 347.267 224.15C347.005 223.889 346.612 223.627 346.088 223.496C345.565 223.366 345.172 223.235 344.779 223.366C344.387 223.366 343.994 223.627 343.601 223.889C343.208 224.15 343.077 224.542 342.816 224.935C342.685 225.327 342.685 225.85 342.685 226.243C342.816 226.635 342.947 227.027 343.339 227.289C343.732 227.55 343.994 227.812 344.517 227.943C345.041 228.073 345.434 228.204 345.958 228.073C346.35 228.073 346.743 227.812 347.136 227.55C347.398 227.42 347.659 227.027 347.79 226.504Z" fill="#7F1416"/>
<path d="M345.695 237.359C345.433 238.012 345.04 238.536 344.647 238.797C344.255 239.059 343.731 239.189 343.207 239.059C342.684 239.059 342.029 238.797 341.506 238.536L337.709 237.097C337.447 236.966 337.316 236.835 337.186 236.574C337.055 236.312 337.055 236.051 337.186 235.789C337.316 235.528 337.447 235.397 337.709 235.266C337.971 235.135 338.233 235.135 338.495 235.266L342.291 236.705C342.553 236.835 342.946 236.966 343.207 236.966C343.469 236.966 343.731 236.966 343.993 236.835C344.255 236.705 344.386 236.443 344.516 236.051C344.647 235.658 344.778 235.397 344.647 235.005C344.647 234.743 344.516 234.351 344.255 234.22C343.993 233.958 343.731 233.828 343.469 233.697L339.673 232.258C339.411 232.128 339.28 231.997 339.149 231.735C339.018 231.474 339.018 231.212 339.149 230.951C339.28 230.689 339.411 230.558 339.673 230.427C339.935 230.297 340.196 230.297 340.458 230.427L349.491 234.089C349.753 234.22 349.884 234.351 350.015 234.612C350.146 234.874 350.146 235.135 350.015 235.397C349.884 235.658 349.753 235.789 349.491 235.92C349.229 236.051 348.967 236.051 348.706 235.92L345.04 234.481L345.171 234.22C345.302 234.351 345.433 234.612 345.564 234.743C345.695 235.005 345.826 235.266 345.826 235.528C345.956 235.789 345.956 236.182 345.956 236.443C345.826 236.705 345.826 237.097 345.695 237.359Z" fill="#7F1416"/>
<path d="M59.5275 33.7401C59.6584 33.6093 59.7893 33.6093 59.9202 33.4785C60.0511 33.4785 60.3129 33.4785 60.4439 33.4785L67.1202 35.5709L66.4657 36.094L65.8111 29.1629C65.8111 28.7706 65.942 28.509 66.073 28.3783C66.2039 28.2475 66.4657 28.1167 66.7275 28.1167C66.9893 28.1167 67.2511 28.2475 67.382 28.509L73.142 35.5709C73.273 35.8325 73.4039 35.9633 73.4039 36.2248C73.4039 36.4864 73.273 36.7479 73.0111 36.8787C72.7493 37.0095 72.4875 37.1402 72.2257 37.1402C71.9639 37.1402 71.702 37.0095 71.5711 36.7479L66.8584 30.9938L67.382 30.7322L68.1675 36.6171C68.1675 36.7479 68.1675 36.8787 68.0366 37.0095C68.0366 37.1402 67.9057 37.271 67.7748 37.4018C67.6439 37.5326 67.513 37.5326 67.382 37.5326C67.2511 37.5326 67.1202 37.5326 66.8584 37.5326L61.622 35.8325L61.3602 34.917L66.4657 41.0635C66.5966 41.3251 66.7275 41.4558 66.7275 41.7174C66.7275 41.9789 66.5966 42.2405 66.3348 42.3713C66.073 42.5021 65.942 42.6328 65.6802 42.6328C65.4184 42.6328 65.2875 42.5021 65.0257 42.2405L59.2657 35.1786C59.1348 34.917 59.0039 34.7863 59.0039 34.5247C59.1348 34.1324 59.2657 34.0016 59.5275 33.7401Z" fill="#F9A557"/>
<path d="M78.7718 32.9555C77.9864 33.4787 77.3318 33.7402 76.5464 33.871C75.7609 34.0018 75.1064 33.871 74.4518 33.4787C73.7973 33.2171 73.2736 32.694 72.75 32.0401C72.2264 31.2555 71.8336 30.4708 71.8336 29.6862C71.7027 28.9015 71.8336 28.2476 72.0954 27.5937C72.3573 26.9399 72.8809 26.4168 73.4045 26.0244C73.7973 25.7629 74.3209 25.5013 74.8445 25.3705C75.3682 25.2398 75.8918 25.2398 76.4154 25.3705C76.9391 25.5013 77.4627 25.6321 77.8554 25.8936C78.3791 26.1552 78.7718 26.5475 79.0336 26.9399C79.1645 27.2014 79.1645 27.3322 79.1645 27.5937C79.1645 27.8553 79.0336 27.9861 78.7718 28.1168L73.9282 31.6478L72.6191 30.6016L77.3318 27.463L77.2009 27.8553L76.9391 27.463C76.8082 27.2014 76.5464 27.0706 76.1536 26.9399C75.8918 26.8091 75.4991 26.8091 75.2373 26.9399C74.9754 26.9399 74.5827 27.0706 74.3209 27.3322C74.0591 27.463 73.7973 27.7245 73.6664 27.9861C73.5354 28.2476 73.4045 28.5092 73.4045 28.7707C73.4045 29.0323 73.4045 29.2938 73.5354 29.6862C73.6664 30.0785 73.7973 30.34 74.19 30.8631C74.5827 31.3862 74.8445 31.6478 75.3682 31.7786C75.7609 31.9093 76.1536 32.0401 76.6773 31.9093C77.07 31.9093 77.4627 31.6478 77.8554 31.517C78.1173 31.2555 78.3791 31.1247 78.51 30.8631C78.6409 30.7324 78.7718 30.4708 78.7718 30.34C78.7718 30.2093 78.9027 30.0785 78.9027 29.9477C79.0336 29.8169 79.1645 29.5554 79.2954 29.5554C79.4264 29.4246 79.6882 29.4246 79.95 29.4246C80.2118 29.4246 80.3427 29.5554 80.4736 29.6862C80.6045 29.9477 80.6045 30.2093 80.6045 30.6016C80.4736 30.9939 80.3427 31.3862 80.0809 31.7786C79.5573 32.1709 79.1645 32.5632 78.7718 32.9555Z" fill="#F9A557"/>
<path d="M82.4369 16.3471C82.6987 16.2163 82.9605 16.2163 83.0914 16.2163C83.3532 16.2163 83.4841 16.4779 83.746 16.6086L88.9823 24.7167C89.1132 24.9783 89.1132 25.2398 89.1132 25.3706C89.1132 25.6322 88.9823 25.763 88.7205 26.0245C88.4587 26.1553 88.1969 26.1553 88.066 26.1553C87.8041 26.1553 87.6732 25.8937 87.4114 25.763L87.0187 25.1091L87.4114 24.9783C87.5423 25.1091 87.5423 25.2398 87.5423 25.5014C87.5423 25.763 87.4114 26.0245 87.4114 26.2861C87.2805 26.5476 87.1496 26.8092 86.8878 27.2015C86.626 27.463 86.3641 27.7246 86.1023 27.9861C85.4478 28.3785 84.7932 28.5092 84.1387 28.5092C83.4841 28.5092 82.8296 28.3785 82.175 27.9861C81.5205 27.5938 80.9969 27.0707 80.4732 26.4168C79.9496 25.6322 79.6878 24.9783 79.6878 24.1936C79.5569 23.409 79.6878 22.7551 80.0805 22.1012C80.3423 21.4473 80.866 20.9242 81.3896 20.6627C81.7823 20.4011 82.175 20.2704 82.5678 20.1396C82.9605 20.0088 83.3532 20.0088 83.615 20.0088C84.0078 20.0088 84.2696 20.1396 84.5314 20.1396C84.7932 20.2704 84.9241 20.4011 85.055 20.5319L84.6623 21.055L82.4369 17.5241C82.306 17.2625 82.306 17.001 82.306 16.8702C82.306 16.7394 82.175 16.4779 82.4369 16.3471ZM85.186 26.4168C85.5787 26.1553 85.8405 25.8937 85.9714 25.5014C86.1023 25.1091 86.2332 24.7167 86.1023 24.3244C86.1023 23.9321 85.8405 23.409 85.5787 23.0167C85.3169 22.6243 84.9241 22.232 84.6623 22.1012C84.2696 21.8397 83.8769 21.7089 83.4841 21.7089C83.0914 21.7089 82.6987 21.8397 82.306 22.1012C81.9132 22.3628 81.6514 22.6243 81.5205 23.0167C81.3896 23.409 81.2587 23.8013 81.3896 24.1936C81.3896 24.586 81.6514 25.1091 81.9132 25.5014C82.175 25.8937 82.4369 26.2861 82.8296 26.4168C83.2223 26.6784 83.615 26.8092 84.0078 26.8092C84.4005 26.8092 84.7932 26.6784 85.186 26.4168Z" fill="#F9A557"/>
<path d="M87.1501 16.0855C86.8882 16.2163 86.6264 16.3471 86.3646 16.3471C86.2337 16.3471 85.9719 16.2163 85.841 15.9547L85.7101 15.6932C85.5791 15.4316 85.5791 15.1701 85.5791 15.0393C85.7101 14.9085 85.841 14.647 86.1028 14.5162C86.3646 14.3854 86.6264 14.2546 86.8882 14.2546C87.0191 14.2546 87.281 14.3854 87.4119 14.647L87.5428 14.9085C87.6737 15.1701 87.6737 15.4316 87.6737 15.5624C87.6737 15.6932 87.4119 15.9547 87.1501 16.0855ZM92.2555 22.8859C92.3864 23.1474 92.3864 23.409 92.3864 23.6705C92.3864 23.9321 92.1246 24.0628 91.9937 24.1936C91.7319 24.3244 91.47 24.3244 91.2082 24.3244C90.9464 24.1936 90.8155 24.0628 90.6846 23.9321L87.281 18.3087C87.15 18.0471 87.1501 17.7856 87.1501 17.524C87.1501 17.2625 87.4119 17.1317 87.5428 17.0009C87.8046 16.8702 88.0664 16.8702 88.3282 16.8702C88.5901 17.0009 88.721 17.1317 88.8519 17.2625L92.2555 22.8859Z" fill="#F9A557"/>
<path d="M95.7901 12.4237C96.0519 12.293 96.3137 12.293 96.5755 12.293C96.8373 12.4237 96.9683 12.5545 97.0992 12.8161L98.9319 16.347C99.4555 17.2625 99.5864 18.3087 99.3246 19.0933C99.0628 20.0088 98.4083 20.6626 97.4919 21.1857C96.4446 21.7088 95.5283 21.8396 94.7428 21.5781C93.9573 21.3165 93.1719 20.6626 92.6483 19.7472L90.8155 16.2162C90.6846 15.9547 90.6846 15.6931 90.6846 15.4316C90.8155 15.17 90.9464 15.0393 91.2083 14.9085C91.4701 14.7777 91.7319 14.7777 91.9937 14.7777C92.2555 14.9085 92.3864 15.0393 92.5173 15.3008L94.3501 18.8318C94.6119 19.3549 95.0046 19.7472 95.3974 19.878C95.7901 20.0087 96.1828 20.0088 96.7064 19.7472C97.2301 19.4856 97.4919 19.0933 97.6228 18.701C97.7537 18.3087 97.6228 17.7856 97.361 17.2625L95.5283 13.7315C95.3973 13.47 95.3974 13.2084 95.3974 12.9468C95.3974 12.6853 95.5283 12.5545 95.7901 12.4237Z" fill="#F9A557"/>
<path d="M102.728 8.89274C103.514 8.50041 104.168 8.50041 104.692 8.63118C105.216 8.89274 105.739 9.15429 106.001 9.67739H105.739V9.41584C105.739 9.15429 105.87 8.89274 106.001 8.50041C106.132 8.10808 106.263 7.84653 106.525 7.4542C106.787 7.06187 107.179 6.9311 107.572 6.66955C108.227 6.40799 108.881 6.27722 109.405 6.40799C109.928 6.53877 110.321 6.80032 110.714 7.19265C111.107 7.58498 111.368 8.10808 111.63 8.76196L113.332 12.4237C113.463 12.6852 113.463 12.9468 113.332 13.2083C113.201 13.4699 113.07 13.6007 112.808 13.7314C112.547 13.8622 112.285 13.8622 112.023 13.7314C111.761 13.6007 111.63 13.4699 111.499 13.2083L109.798 9.54662C109.667 9.28506 109.536 9.02351 109.274 8.76196C109.143 8.50041 108.881 8.36963 108.619 8.36963C108.358 8.36963 107.965 8.36963 107.703 8.50041C107.31 8.63118 107.048 8.89274 106.918 9.15429C106.787 9.41584 106.656 9.67739 106.656 10.0697C106.656 10.3313 106.656 10.7236 106.787 10.9852L108.488 14.6469C108.619 14.9084 108.619 15.17 108.488 15.4315C108.358 15.6931 108.227 15.8239 107.965 15.9546C107.703 16.0854 107.441 16.0854 107.179 15.9546C106.918 15.8239 106.787 15.6931 106.656 15.4315L104.954 11.7698C104.823 11.5083 104.692 11.2467 104.43 10.9852C104.299 10.7236 104.038 10.5928 103.776 10.5928C103.514 10.5928 103.121 10.5928 102.859 10.7236C102.467 10.8544 102.205 11.1159 102.074 11.3775C101.943 11.639 101.812 11.9006 101.812 12.2929C101.812 12.5545 101.812 12.9468 101.943 13.2083L103.645 16.8701C103.776 17.1316 103.776 17.3932 103.645 17.6547C103.514 17.9163 103.383 18.0471 103.121 18.1778C102.859 18.3086 102.598 18.3086 102.336 18.1778C102.074 18.0471 101.943 17.9163 101.812 17.6547L99.1939 11.7698C99.063 11.5083 99.063 11.2467 99.1939 10.9852C99.3248 10.7236 99.4557 10.5928 99.7175 10.462C99.9793 10.3313 100.241 10.3313 100.503 10.462C100.634 10.462 100.765 10.7236 100.896 10.9852L101.158 11.639H100.896C100.896 11.3775 100.896 11.2467 101.027 10.9852C101.158 10.7236 101.158 10.462 101.288 10.2005C101.419 9.93894 101.681 9.67739 101.812 9.41584C102.205 9.15429 102.467 9.02351 102.728 8.89274Z" fill="#F9A557"/>
<path d="M12.2701 219.05C12.1392 218.788 12.2701 218.527 12.2701 218.265C12.2701 218.004 12.5319 217.873 12.7937 217.873C13.0555 217.742 13.3174 217.873 13.4483 218.004C13.7101 218.134 13.841 218.265 13.841 218.527L15.281 223.365C15.4119 223.627 15.281 223.888 15.1501 224.15C15.0192 224.412 14.8883 224.542 14.6265 224.542L5.8555 227.027C5.59368 227.158 5.33186 227.027 5.07004 226.896C4.80822 226.766 4.67732 226.504 4.54641 226.242C4.4155 225.981 4.54641 225.719 4.67731 225.589C4.80822 225.458 4.93913 225.196 5.20095 225.065L13.3174 222.711L13.1865 223.104L12.2701 219.05Z" fill="#44B755"/>
<path d="M7.55669 209.242C8.34215 209.111 9.1276 209.111 9.91306 209.242C10.6985 209.503 11.2221 209.896 11.7457 210.419C12.2694 210.942 12.5312 211.596 12.793 212.38C12.9239 213.165 12.9239 213.95 12.793 214.603C12.5312 215.257 12.1385 215.911 11.6148 216.434C11.0912 216.957 10.3058 217.35 9.52033 217.481C8.73488 217.611 7.94942 217.611 7.16397 217.481C6.37851 217.219 5.85488 216.827 5.33124 216.304C4.8076 215.78 4.54579 215.127 4.28397 214.342C4.02215 213.557 4.15306 212.773 4.28397 212.119C4.54579 211.465 4.93851 210.811 5.46215 210.288C5.98579 209.765 6.64033 209.372 7.55669 209.242ZM7.94942 211.072C7.42579 211.203 7.03306 211.334 6.64033 211.726C6.2476 212.119 6.1167 212.38 5.98579 212.773C5.85488 213.165 5.85488 213.557 5.98579 214.08C6.1167 214.473 6.2476 214.865 6.64033 215.127C6.90215 215.388 7.29488 215.65 7.6876 215.78C8.08033 215.911 8.60397 215.911 9.1276 215.78C9.65124 215.65 10.044 215.519 10.4367 215.127C10.8294 214.734 10.9603 214.473 11.0912 214.08C11.2221 213.688 11.2221 213.296 11.0912 212.773C10.9603 212.38 10.8294 211.988 10.4367 211.726C10.1749 211.465 9.78215 211.203 9.38942 211.072C8.9967 210.942 8.47306 210.942 7.94942 211.072Z" fill="#44B755"/>
<path d="M1.4043 198.649C1.4043 198.387 1.4043 198.126 1.5352 197.995C1.66611 197.733 1.92793 197.603 2.18975 197.603C2.32066 197.603 2.32066 197.603 2.32066 197.603H2.45157L9.25884 198.91C9.52066 198.91 9.65157 199.041 9.78248 199.172C9.91339 199.303 10.0443 199.564 10.0443 199.695C10.0443 200.087 9.91339 200.349 9.65157 200.61L5.46248 202.834V202.441L10.0443 203.095C10.437 203.226 10.6988 203.487 10.8297 203.749C10.8297 203.88 10.8297 204.141 10.8297 204.403C10.6988 204.664 10.5679 204.795 10.437 204.926L4.4152 208.326C4.2843 208.326 4.15339 208.457 4.02248 208.457C3.76066 208.457 3.49884 208.457 3.36793 208.326C3.10611 208.195 2.9752 207.934 2.9752 207.672C2.9752 207.411 2.9752 207.28 2.9752 207.149C3.10611 207.018 3.23702 206.888 3.36793 206.757L8.08066 204.011V204.403L4.02248 203.618C3.62975 203.487 3.36793 203.226 3.36793 202.834C3.36793 202.572 3.36793 202.441 3.36793 202.31C3.49884 202.18 3.62975 202.049 3.76066 201.918L7.2952 199.826L7.42611 200.218L2.05884 199.172C1.79702 199.433 1.5352 199.172 1.4043 198.649Z" fill="#44B755"/>
<path d="M281.549 48.1255L282.727 49.1717L280.633 51.5257L279.455 50.4795L281.549 48.1255Z" fill="#EC6763"/>
<path d="M290.452 56.3645L289.405 55.1875L287.179 57.4107L288.227 58.5877L290.452 56.3645Z" fill="#EC6763"/>
<path d="M296.604 62.9033L297.651 64.0803L295.295 66.1727L294.247 64.9957L296.604 62.9033Z" fill="#EC6763"/>
<path d="M304.327 72.319L303.411 71.0112L296.604 76.2423L297.52 77.55L304.327 72.319Z" fill="#EC6763"/>
<path d="M309.564 79.7734L310.48 81.0812L307.862 82.7813L306.946 81.4735L309.564 79.7734Z" fill="#EC6763"/>
<path d="M315.978 90.1046L315.193 88.7969L312.444 90.3662L313.229 91.6739L315.978 90.1046Z" fill="#7F1416"/>
<path d="M320.168 97.9512L320.823 99.3897L318.074 100.828L317.419 99.3897L320.168 97.9512Z" fill="#7F1416"/>
<path d="M325.143 109.067L324.488 107.629L316.503 110.898L317.157 112.337L325.143 109.067Z" fill="#7F1416"/>
<path d="M328.415 117.568L328.938 119.006L325.927 120.052L325.404 118.614L328.415 117.568Z" fill="#7F1416"/>
<path d="M331.95 129.207L331.558 127.637L328.547 128.422L328.939 129.991L331.95 129.207Z" fill="#7F1416"/>
<path d="M333.913 137.969L334.175 139.538L331.164 140.192L330.902 138.623L333.913 137.969Z" fill="#7F1416"/>
<path d="M336.007 150L335.746 148.431L327.236 149.608L327.498 151.177L336.007 150Z" fill="#7F1416"/>
<path d="M336.793 159.023L336.924 160.593L333.782 160.854L333.651 159.285L336.793 159.023Z" fill="#7F1416"/>
<path d="M337.317 171.186V169.616H334.176V171.186H337.317Z" fill="#7F1416"/>
<path d="M337.055 180.209L336.924 181.778L333.782 181.648L333.913 180.078L337.055 180.209Z" fill="#7F1416"/>
<path d="M335.876 192.371L336.138 190.802L327.629 189.625L327.367 191.194L335.876 192.371Z" fill="#7F1416"/>
<path d="M334.437 201.264L334.175 202.834L331.164 202.18L331.426 200.61L334.437 201.264Z" fill="#7F1416"/>
<path d="M331.688 213.165L332.081 211.595L329.07 210.811L328.677 212.38L331.688 213.165Z" fill="#7F1416"/>
<path d="M329.069 221.796L328.546 223.234L325.535 222.188L326.058 220.75L329.069 221.796Z" fill="#7F1416"/>
<path d="M324.881 233.174L325.536 231.735L317.549 228.466L316.896 229.904L324.881 233.174Z" fill="#7F1416"/>
<path d="M321.216 241.412L320.561 242.851L317.812 241.412L318.467 239.974L321.216 241.412Z" fill="#7F1416"/>
<path d="M315.455 252.136L316.24 250.828L313.491 249.259L312.706 250.567L315.455 252.136Z" fill="#7F1416"/>
<path d="M310.742 259.852L309.826 261.159L307.207 259.459L308.124 258.152L310.742 259.852Z" fill="#7F1416"/>
<path d="M303.673 269.791L304.589 268.483L297.782 263.252L296.866 264.56L303.673 269.791Z" fill="#7F1416"/>
<path d="M298.045 276.853L296.997 278.03L294.641 275.937L295.688 274.76L298.045 276.853Z" fill="#7F1416"/>
<path d="M289.797 285.745L290.844 284.699L288.618 282.476L287.44 283.522L289.797 285.745Z" fill="#7F1416"/>
<path d="M283.252 291.892L282.074 292.938L279.979 290.584L281.157 289.538L283.252 291.892Z" fill="#7F1416"/>
<path d="M273.957 299.608L275.136 298.692L269.899 291.892L268.721 292.807L273.957 299.608Z" fill="#7F1416"/>
<path d="M18.4221 138.623L18.1602 140.192L21.1711 140.846L21.433 139.276L18.4221 138.623Z" fill="#44B755"/>
<path d="M20.3857 129.73L20.7784 128.16L23.7893 128.945L23.3966 130.514L20.3857 129.73Z" fill="#44B755"/>
<path d="M23.9211 118.221L23.3975 119.66L26.4084 120.706L26.932 119.268L23.9211 118.221Z" fill="#44B755"/>
<path d="M27.0625 109.721L27.717 108.282L35.7025 111.552L35.0479 112.99L27.0625 109.721Z" fill="#44B755"/>
<path d="M32.0374 98.605L31.3828 100.044L34.1319 101.482L34.7865 100.044L32.0374 98.605Z" fill="#44B755"/>
<path d="M36.2266 90.6278L37.012 89.3201L39.7611 90.8894L38.9757 92.1971L36.2266 90.6278Z" fill="#F9A557"/>
<path d="M42.641 80.2964L41.7246 81.6041L44.3428 83.3042L45.2592 81.9965L42.641 80.2964Z" fill="#F9A557"/>
<path d="M47.877 72.8422L48.7933 71.5344L55.6006 76.7655L54.6842 78.0732L47.877 72.8422Z" fill="#F9A557"/>
<path d="M55.4701 63.4263L54.4229 64.6033L56.7792 66.6957L57.8265 65.5187L55.4701 63.4263Z" fill="#F9A557"/>
<path d="M61.6221 56.8874L62.6694 55.7104L64.8949 57.9336L63.8476 59.1106L61.6221 56.8874Z" fill="#F9A557"/>
<path d="M70.393 48.5178L69.2148 49.564L71.3093 51.918L72.4875 50.8718L70.393 48.5178Z" fill="#F9A557"/>
<path d="M77.3311 42.7638L78.6402 41.8484L83.8766 48.6487L82.5675 49.5642L77.3311 42.7638Z" fill="#F9A557"/>
<path d="M87.1499 35.571L85.8408 36.4865L87.5426 39.102L88.8517 38.1866L87.1499 35.571Z" fill="#F9A557"/>
<path d="M94.873 30.863L96.1821 30.0784L97.753 32.8247L96.4439 33.6093L94.873 30.863Z" fill="#F9A557"/>
<path d="M105.476 25.1089L104.036 25.7628L105.476 28.6398L106.916 27.986L105.476 25.1089Z" fill="#F9A557"/>
<path d="M113.594 21.3165L115.034 20.6626L118.307 28.6399L116.867 29.2938L113.594 21.3165Z" fill="#F9A557"/>
<path d="M196.197 9.80811L197.767 10.0697L196.72 18.7009L195.149 18.4393L196.197 9.80811Z" fill="#EC6763"/>
<path d="M206.539 11.5083L208.11 11.7699L207.456 14.9085L205.885 14.6469L206.539 11.5083Z" fill="#EC6763"/>
<path d="M218.321 14.1238L216.75 13.7314L215.965 16.7393L217.536 17.1316L218.321 14.1238Z" fill="#EC6763"/>
<path d="M226.96 16.7393L228.4 17.2624L227.353 20.2702L225.913 19.7471L226.96 16.7393Z" fill="#EC6763"/>
<path d="M238.35 21.055L236.91 20.4011L233.638 28.3785L235.078 29.0323L238.35 21.055Z" fill="#EC6763"/>
<path d="M246.466 24.8474L247.906 25.5013L246.466 28.3784L245.026 27.7245L246.466 24.8474Z" fill="#EC6763"/>
<path d="M257.2 30.4707L255.891 29.686L254.32 32.4323L255.629 33.217L257.2 30.4707Z" fill="#EC6763"/>
<path d="M264.794 35.3096L266.103 36.225L264.401 38.8405L263.092 37.9251L264.794 35.3096Z" fill="#EC6763"/>
<path d="M274.611 42.3715L273.433 41.4561L268.197 48.3872L269.375 49.3026L274.611 42.3715Z" fill="#EC6763"/>
<path d="M124.983 17.001L123.543 17.5241L124.59 20.5319L126.03 20.0088L124.983 17.001Z" fill="#F9A557"/>
<path d="M133.491 14.3852L135.062 13.9929L135.847 17.0008L134.277 17.3931L133.491 14.3852Z" fill="#F9A557"/>
<path d="M145.273 11.6392L143.702 11.9007L144.357 15.0393L145.927 14.7778L145.273 11.6392Z" fill="#F9A557"/>
<path d="M154.176 10.0697L155.747 9.80811L156.925 18.4393L155.354 18.7009L154.176 10.0697Z" fill="#F9A557"/>
<path d="M166.218 8.89282L164.647 9.0236L164.909 12.1622L166.48 12.0314L166.218 8.89282Z" fill="#EC6763"/>
<path d="M175.12 8.50049H176.691V10.0698H175.12V8.50049Z" fill="#EC6763"/>
<path d="M187.165 8.89274L185.594 8.76196L185.463 11.9006L187.034 12.0314L187.165 8.89274Z" fill="#EC6763"/>
<path d="M79.1645 300L77.9863 299.084L83.2226 292.153L84.4008 293.069L79.1645 300Z" fill="#44B755"/>
<path d="M69.7393 292.284L70.9175 293.33L73.012 290.976L71.8338 289.93L69.7393 292.284Z" fill="#44B755"/>
<path d="M63.1938 286.138L62.1465 284.961L64.372 282.738L65.4192 283.915L63.1938 286.138Z" fill="#44B755"/>
<path d="M54.9463 277.245L55.9935 278.422L58.3499 276.33L57.3026 275.153L54.9463 277.245Z" fill="#44B755"/>
<path d="M49.1858 270.314L48.2695 269.006L55.0767 263.775L55.9931 265.083L49.1858 270.314Z" fill="#44B755"/>
<path d="M42.1172 260.375L43.0335 261.683L45.6517 259.983L44.7353 258.675L42.1172 260.375Z" fill="#44B755"/>
<path d="M37.4045 252.79L36.6191 251.482L39.3682 249.913L40.1536 251.221L37.4045 252.79Z" fill="#44B755"/>
<path d="M31.6445 242.066L32.299 243.505L35.0481 242.066L34.3936 240.628L31.6445 242.066Z" fill="#44B755"/>
<path d="M27.9788 233.827L27.3242 232.389L35.3097 229.119L35.9642 230.558L27.9788 233.827Z" fill="#44B755"/>
<path d="M23.6592 222.319L24.1828 223.758L27.1937 222.711L26.6701 221.273L23.6592 222.319Z" fill="#44B755"/>
<path d="M21.0403 213.688L20.6475 212.119L23.6584 211.334L24.0512 212.903L21.0403 213.688Z" fill="#44B755"/>
<path d="M18.292 201.918L18.5538 203.487L21.5647 202.833L21.3029 201.264L18.292 201.918Z" fill="#44B755"/>
<path d="M16.7208 193.025L16.459 191.456L24.968 190.279L25.2299 191.848L16.7208 193.025Z" fill="#44B755"/>
<path d="M15.543 180.863L15.6739 182.432L18.8157 182.171L18.6848 180.602L15.543 180.863Z" fill="#44B755"/>
<path d="M15.2803 171.84V170.27H18.4221V171.84H15.2803Z" fill="#44B755"/>
<path d="M15.6739 159.677L15.543 161.247L18.6848 161.378L18.8157 159.808L15.6739 159.677Z" fill="#44B755"/>
<path d="M16.459 150.654L16.7208 149.084L25.2299 150.261L24.968 151.831L16.459 150.654Z" fill="#44B755"/>
</g>
<path fill-rule="evenodd" clip-rule="evenodd" d="M314.892 213.48C306.584 240.005 290.898 263.547 269.754 281.4C265.957 284.607 260.298 283.758 257.331 279.77L252.434 273.187C249.458 269.186 250.327 263.554 254.105 260.301C264.214 251.6 272.871 241.209 279.645 229.498C293.283 205.92 298.477 178.397 294.37 151.47C290.263 124.542 277.1 99.8193 257.052 81.3792C237.004 62.9391 211.27 51.8834 184.094 50.036C156.918 48.1886 129.924 55.6599 107.565 71.2172C85.2057 86.7746 68.8178 109.489 61.1041 135.612C53.3905 161.736 54.8121 189.709 65.1342 214.916C72.5292 232.975 84.1758 248.841 98.9456 261.245C102.749 264.439 103.695 270.031 100.801 274.066L95.6999 281.178C92.8031 285.217 87.1602 286.165 83.3071 283.024C61.8556 265.542 45.762 242.278 36.9932 215.901C27.2757 186.67 27.0513 155.116 36.352 125.75C45.6528 96.3842 64.0023 70.7122 88.7758 52.4059C113.549 34.0996 143.478 24.0969 174.28 23.8285C205.082 23.5602 235.18 33.04 260.269 50.9119C285.357 68.7838 304.151 94.1323 313.962 123.331C323.773 152.531 324.099 184.085 314.892 213.48ZM176.129 169.938C176.216 170.161 175.916 170.327 175.773 170.135C175.725 170.07 175.719 169.983 175.758 169.912C175.843 169.76 176.066 169.775 176.129 169.938Z" fill="white"/>
<path d="M175.758 169.912L175.937 170.012L175.937 170.012L175.937 170.013L175.773 170.135M175.758 169.912L175.939 170.011L176.103 169.889C176.018 169.774 175.833 169.777 175.758 169.912ZM175.758 169.912C175.728 169.966 175.724 170.03 175.746 170.086C175.746 170.086 175.746 170.087 175.746 170.087C175.753 170.104 175.762 170.12 175.773 170.135M175.773 170.135C175.873 170.27 176.052 170.228 176.118 170.114L175.938 170.013L175.773 170.135ZM83.781 282.443L83.3071 283.024L83.7809 282.443C62.4396 265.05 46.4287 241.906 37.7049 215.664C28.0373 186.584 27.8141 155.192 37.067 125.976C46.32 96.7615 64.5753 71.2213 89.2215 53.0091L88.7758 52.4059L89.2216 53.0091C113.867 34.7968 143.643 24.8455 174.286 24.5785C204.93 24.3115 234.874 33.7426 259.834 51.5227C284.793 69.3028 303.49 94.5211 313.251 123.57C323.012 152.62 323.336 184.012 314.176 213.256C305.911 239.645 290.305 263.066 269.27 280.827L269.754 281.4L269.27 280.827C265.827 283.735 260.66 282.989 257.933 279.322L253.036 272.739C250.315 269.082 251.087 263.889 254.594 260.869C264.766 252.114 273.478 241.658 280.294 229.874C294.017 206.148 299.244 178.452 295.111 151.357C290.979 124.26 277.733 99.3828 257.56 80.8272C237.386 62.2716 211.491 51.1467 184.145 49.2877C156.799 47.4287 129.635 54.9468 107.136 70.6015C84.6374 86.2564 68.1468 109.113 60.3848 135.4C52.6229 161.687 54.0534 189.835 64.4402 215.2C71.8815 233.372 83.601 249.338 98.4633 261.819C101.994 264.784 102.837 269.941 100.191 273.629L95.0905 280.741C92.4273 284.454 87.275 285.291 83.781 282.443ZM176.12 170.111L175.94 170.012L175.942 170.01L176.103 169.891C176.114 169.905 176.122 169.921 176.129 169.938C176.154 170.003 176.147 170.063 176.12 170.111Z" stroke="#D9D9D9" stroke-opacity="0.4" strokeWidth="1.5"/>
<g filter="url(#filter0_di_58_643)">
<path d="M234.557 249.63C258.552 231.901 274.112 203.411 274.112 171.288C274.112 117.527 230.53 73.9446 176.769 73.9446C123.008 73.9446 79.4258 117.527 79.4258 171.288C79.4258 203.411 94.9862 231.901 118.981 249.63H234.557Z" fill="white"/>
</g>
<path d="M188.047 80.7081L188.926 80.8229L188.299 85.6946L187.421 85.5798L188.047 80.7081Z" fill="#60034C"/>
<path d="M193.956 81.648L194.825 81.8243L194.475 83.5755L193.607 83.3992L193.956 81.648Z" fill="#60034C"/>
<path d="M200.607 83.1947L199.749 82.9728L199.309 84.7031L200.167 84.925L200.607 83.1947Z" fill="#60034C"/>
<path d="M205.486 84.6807L206.327 84.9624L205.768 86.6576L204.927 86.3759L205.486 84.6807Z" fill="#60034C"/>
<path d="M211.919 87.1041L211.1 86.764L209.245 91.3063L210.064 91.6464L211.919 87.1041Z" fill="#60034C"/>
<path d="M216.567 89.2137L217.361 89.6106L216.573 91.2108L215.779 90.8139L216.567 89.2137Z" fill="#60034C"/>
<path d="M222.627 92.471L221.863 92.0193L220.966 93.5603L221.731 94.012L222.627 92.471Z" fill="#60034C"/>
<path d="M226.925 95.1513L227.665 95.6428L226.69 97.1344L225.95 96.6429L226.925 95.1513Z" fill="#60034C"/>
<path d="M232.517 99.1707L231.813 98.6284L228.855 102.532L229.559 103.074L232.517 99.1707Z" fill="#60034C"/>
<path d="M236.465 102.421L237.129 103.011L235.958 104.352L235.293 103.761L236.465 102.421Z" fill="#60034C"/>
<path d="M241.482 107.149L240.86 106.513L239.598 107.767L240.221 108.403L241.482 107.149Z" fill="#60034C"/>
<path d="M244.946 110.859L245.534 111.527L244.209 112.713L243.621 112.045L244.946 110.859Z" fill="#60034C"/>
<path d="M249.315 116.2L248.774 115.493L244.914 118.491L245.455 119.199L249.315 116.2Z" fill="#60034C"/>
<path d="M252.293 120.37L252.784 121.114L251.308 122.103L250.818 121.359L252.293 120.37Z" fill="#60034C"/>
<path d="M255.926 126.245L255.488 125.469L253.948 126.352L254.386 127.128L255.926 126.245Z" fill="#60034C"/>
<path d="M258.319 130.733L258.716 131.532L257.132 132.332L256.735 131.534L258.319 130.733Z" fill="#60034C"/>
<path d="M261.168 137.033L260.828 136.208L256.329 138.097L256.67 138.922L261.168 137.033Z" fill="#60034C"/>
<path d="M262.975 141.837L263.258 142.684L261.578 143.254L261.295 142.407L262.975 141.837Z" fill="#60034C"/>
<path d="M264.975 148.46L264.752 147.596L263.037 148.047L263.26 148.911L264.975 148.46Z" fill="#60034C"/>
<path d="M266.134 153.42L266.313 154.294L264.577 154.654L264.399 153.779L266.134 153.42Z" fill="#60034C"/>
<path d="M267.269 160.248L267.152 159.363L262.322 160.014L262.439 160.899L267.269 160.248Z" fill="#60034C"/>
<path d="M267.781 165.36L267.837 166.251L266.068 166.364L266.012 165.473L267.781 165.36Z" fill="#60034C"/>
<path d="M268.012 172.279L268.018 171.386L266.246 171.374L266.24 172.267L268.012 172.279Z" fill="#60034C"/>
<path d="M267.859 177.372L267.807 178.264L266.038 178.158L266.09 177.267L267.859 177.372Z" fill="#60034C"/>
<path d="M267.202 184.264L267.316 183.378L262.483 182.747L262.37 183.632L267.202 184.264Z" fill="#60034C"/>
<path d="M266.384 189.335L266.209 190.211L264.472 189.858L264.646 188.983L266.384 189.335Z" fill="#60034C"/>
<path d="M264.831 196.079L265.066 195.218L263.357 194.744L263.122 195.605L264.831 196.079Z" fill="#60034C"/>
<path d="M263.375 200.958L263.096 201.806L261.414 201.243L261.694 200.395L263.375 200.958Z" fill="#60034C"/>
<path d="M260.971 207.444L261.309 206.618L256.803 204.747L256.466 205.573L260.971 207.444Z" fill="#60034C"/>
<path d="M258.879 212.129L258.485 212.929L256.898 212.135L257.291 211.335L258.879 212.129Z" fill="#60034C"/>
<path d="M255.675 218.205L256.11 217.427L254.566 216.55L254.131 217.328L255.675 218.205Z" fill="#60034C"/>
<path d="M252.989 222.571L252.501 223.317L251.022 222.334L251.509 221.588L252.989 222.571Z" fill="#60034C"/>
<path d="M249.002 228.208L249.54 227.499L245.668 224.516L245.13 225.226L249.002 228.208Z" fill="#60034C"/>
<path d="M245.778 232.188L245.192 232.858L243.862 231.677L244.448 231.007L245.778 232.188Z" fill="#60034C"/>
<path d="M241.088 237.246L241.719 236.619L240.474 235.347L239.843 235.974L241.088 237.246Z" fill="#60034C"/>
<path d="M237.407 240.738L236.745 241.331L235.568 239.995L236.231 239.402L237.407 240.738Z" fill="#60034C"/>
<path d="M232.109 245.142L232.811 244.597L229.836 240.706L229.135 241.251L232.109 245.142Z" fill="#60034C"/>
<path d="M121.705 245.369L121.001 244.827L123.96 240.923L124.664 241.466L121.705 245.369Z" fill="#60034C"/>
<path d="M116.389 240.986L117.054 241.576L118.225 240.236L117.56 239.646L116.389 240.986Z" fill="#60034C"/>
<path d="M112.659 237.485L112.036 236.849L113.298 235.594L113.92 236.23L112.659 237.485Z" fill="#60034C"/>
<path d="M107.984 232.471L108.573 233.138L109.898 231.952L109.309 231.284L107.984 232.471Z" fill="#60034C"/>
<path d="M104.744 228.504L104.203 227.797L108.063 224.799L108.604 225.506L104.744 228.504Z" fill="#60034C"/>
<path d="M100.734 222.884L101.225 223.627L102.701 222.638L102.21 221.895L100.734 222.884Z" fill="#60034C"/>
<path d="M98.0306 218.528L97.5928 217.752L99.1333 216.869L99.5711 217.646L98.0306 218.528Z" fill="#60034C"/>
<path d="M94.8027 212.466L95.1996 213.264L96.7838 212.464L96.3868 211.665L94.8027 212.466Z" fill="#60034C"/>
<path d="M92.6903 207.789L92.3496 206.965L96.8478 205.076L97.1885 205.9L92.6903 207.789Z" fill="#60034C"/>
<path d="M90.2607 201.314L90.5436 202.16L92.2228 201.59L91.94 200.743L90.2607 201.314Z" fill="#60034C"/>
<path d="M88.7666 196.401L88.543 195.537L90.2576 195.086L90.4812 195.95L88.7666 196.401Z" fill="#60034C"/>
<path d="M87.2051 189.703L87.3835 190.578L89.1192 190.218L88.9408 189.343L87.2051 189.703Z" fill="#60034C"/>
<path d="M86.3664 184.635L86.249 183.75L91.0789 183.098L91.1963 183.984L86.3664 184.635Z" fill="#60034C"/>
<path d="M85.6816 177.746L85.7375 178.637L87.5059 178.525L87.4501 177.633L85.6816 177.746Z" fill="#60034C"/>
<path d="M85.5 172.611L85.5059 171.718L87.2779 171.73L87.2719 172.623L85.5 172.611Z" fill="#60034C"/>
<path d="M85.7114 165.734L85.6592 166.625L87.428 166.731L87.4803 165.839L85.7114 165.734Z" fill="#60034C"/>
<path d="M86.2021 160.619L86.3159 159.734L91.1485 160.365L91.0347 161.251L86.2021 160.619Z" fill="#60034C"/>
<path d="M87.3096 153.787L87.1348 154.662L88.8719 155.015L89.0468 154.139L87.3096 153.787Z" fill="#60034C"/>
<path d="M88.4521 148.779L88.6871 147.918L90.3956 148.392L90.1605 149.253L88.4521 148.779Z" fill="#60034C"/>
<path d="M90.423 142.191L90.1436 143.039L91.8251 143.602L92.1045 142.755L90.423 142.191Z" fill="#60034C"/>
<path d="M92.21 137.379L92.5474 136.554L97.0532 138.424L96.7158 139.25L92.21 137.379Z" fill="#60034C"/>
<path d="M95.0333 131.068L94.6396 131.868L96.227 132.662L96.6207 131.862L95.0333 131.068Z" fill="#60034C"/>
<path d="M97.4229 126.53L97.8709 125.759L99.3996 126.663L98.9515 127.433L97.4229 126.53Z" fill="#60034C"/>
<path d="M101.017 120.68L100.53 121.426L102.009 122.409L102.497 121.663L101.017 120.68Z" fill="#60034C"/>
<path d="M103.979 116.499L104.517 115.789L108.389 118.771L107.851 119.481L103.979 116.499Z" fill="#60034C"/>
<path d="M108.326 111.139L107.741 111.809L109.07 112.99L109.656 112.32L108.326 111.139Z" fill="#60034C"/>
<path d="M111.775 107.415L112.395 106.776L113.661 108.026L113.041 108.664L111.775 107.415Z" fill="#60034C"/>
<path d="M116.773 102.667L116.111 103.26L117.288 104.595L117.95 104.002L116.773 102.667Z" fill="#60034C"/>
<path d="M120.708 99.4001L121.409 98.855L124.384 102.746L123.682 103.291L120.708 99.4001Z" fill="#60034C"/>
<path d="M126.283 95.3579L125.545 95.8523L126.526 97.3399L127.264 96.8454L126.283 95.3579Z" fill="#60034C"/>
<path d="M130.604 92.6317L131.374 92.1903L132.249 93.7432L131.479 94.1846L130.604 92.6317Z" fill="#60034C"/>
<path d="M136.617 89.3777L135.825 89.7779L136.619 91.3749L137.411 90.9748L136.617 89.3777Z" fill="#60034C"/>
<path d="M141.256 87.2491L142.074 86.9056L143.948 91.4403L143.13 91.7837L141.256 87.2491Z" fill="#60034C"/>
<path d="M147.68 84.7993L146.84 85.0845L147.406 86.7773L148.245 86.4922L147.68 84.7993Z" fill="#60034C"/>
<path d="M152.553 83.2933L153.41 83.0679L153.857 84.7964L153 85.0218L152.553 83.2933Z" fill="#60034C"/>
<path d="M159.197 81.7194L158.329 81.8992L158.686 83.6489L159.554 83.4691L159.197 81.7194Z" fill="#60034C"/>
<path d="M164.225 80.8736L165.103 80.7552L165.749 85.6243L164.87 85.7427L164.225 80.8736Z" fill="#60034C"/>
<path d="M171.058 80.1833L170.174 80.2396L170.286 82.0224L171.17 81.9661L171.058 80.1833Z" fill="#60034C"/>
<path d="M176.152 80L177.038 80.006L177.032 80.8991L176.146 80.8931L176.152 80Z" fill="#60034C"/>
<path d="M182.974 80.2134L182.089 80.1606L181.985 81.9439L182.869 81.9966L182.974 80.2134Z" fill="#60034C"/>
<path d="M63.5716 89.278C59.9881 86.6936 54.9678 87.4924 52.5835 91.2121C43.6984 105.074 37.2114 120.355 33.4152 136.416C29.0049 155.074 28.3128 174.419 31.3786 193.345C34.4443 212.272 41.2079 230.409 51.2831 246.721C59.9552 260.762 70.9347 273.214 83.7412 283.562C87.1778 286.339 92.1936 285.512 94.778 281.928L100.983 273.324C103.568 269.741 102.738 264.761 99.3356 261.942C89.3456 253.667 80.757 243.806 73.9214 232.739C65.6824 219.399 60.1514 204.568 57.6444 189.091C55.1374 173.614 55.7033 157.795 59.3099 142.536C62.3022 129.877 67.3388 117.809 74.2055 106.803C76.5442 103.055 75.7592 98.0676 72.1757 95.4832L63.5716 89.278Z" fill="#56E7A8"/>
<path d="M137.514 143.909V173H131.364V149.747H131.193L124.531 153.923V148.469L131.733 143.909H137.514ZM143.988 167.886V163.043L156.133 143.909H160.309V150.614H157.837L150.181 162.73V162.957H167.44V167.886H143.988ZM157.951 173V166.409L158.065 164.264V143.909H163.832V173H157.951ZM174.585 173.369C173.647 173.369 172.842 173.038 172.17 172.375C171.507 171.703 171.175 170.898 171.175 169.96C171.175 169.032 171.507 168.237 172.17 167.574C172.842 166.911 173.647 166.58 174.585 166.58C175.494 166.58 176.289 166.911 176.971 167.574C177.653 168.237 177.994 169.032 177.994 169.96C177.994 170.585 177.833 171.158 177.511 171.679C177.198 172.19 176.786 172.602 176.275 172.915C175.763 173.218 175.2 173.369 174.585 173.369ZM182.962 173L195.021 149.136V148.938H180.973V143.909H201.385V149.009L189.311 173H182.962ZM215.689 173.398C213.568 173.398 211.679 173.033 210.021 172.304C208.374 171.565 207.071 170.552 206.115 169.264C205.168 167.967 204.68 166.471 204.652 164.776H210.845C210.883 165.486 211.115 166.111 211.541 166.651C211.977 167.181 212.554 167.593 213.274 167.886C213.994 168.18 214.804 168.327 215.703 168.327C216.641 168.327 217.469 168.161 218.189 167.83C218.909 167.498 219.472 167.039 219.879 166.452C220.286 165.865 220.49 165.187 220.49 164.42C220.49 163.644 220.272 162.957 219.837 162.361C219.411 161.755 218.795 161.281 217.99 160.94C217.195 160.599 216.248 160.429 215.149 160.429H212.436V155.912H215.149C216.077 155.912 216.896 155.751 217.607 155.429C218.326 155.107 218.885 154.662 219.283 154.094C219.68 153.516 219.879 152.844 219.879 152.077C219.879 151.348 219.704 150.708 219.354 150.159C219.013 149.6 218.53 149.165 217.905 148.852C217.289 148.54 216.57 148.384 215.746 148.384C214.912 148.384 214.15 148.535 213.459 148.838C212.768 149.132 212.214 149.553 211.797 150.102C211.38 150.652 211.158 151.295 211.129 152.034H205.234C205.263 150.358 205.741 148.881 206.669 147.602C207.597 146.324 208.847 145.325 210.419 144.605C212 143.876 213.786 143.511 215.774 143.511C217.782 143.511 219.538 143.876 221.044 144.605C222.55 145.334 223.719 146.319 224.553 147.56C225.395 148.791 225.812 150.173 225.803 151.707C225.812 153.336 225.305 154.695 224.283 155.784C223.269 156.873 221.948 157.564 220.32 157.858V158.085C222.46 158.36 224.089 159.103 225.206 160.315C226.333 161.518 226.892 163.024 226.882 164.832C226.892 166.49 226.413 167.962 225.447 169.25C224.491 170.538 223.17 171.551 221.484 172.29C219.799 173.028 217.867 173.398 215.689 173.398Z" fill="black"/>
<path d="M149.821 207V189.545H154.04V203.574H161.301V207H149.821ZM179.28 198.273C179.28 200.193 178.911 201.821 178.172 203.156C177.433 204.491 176.433 205.506 175.172 206.199C173.916 206.892 172.507 207.239 170.945 207.239C169.376 207.239 167.964 206.889 166.709 206.19C165.453 205.491 164.456 204.477 163.717 203.148C162.984 201.812 162.618 200.187 162.618 198.273C162.618 196.352 162.984 194.724 163.717 193.389C164.456 192.054 165.453 191.04 166.709 190.347C167.964 189.653 169.376 189.307 170.945 189.307C172.507 189.307 173.916 189.653 175.172 190.347C176.433 191.04 177.433 192.054 178.172 193.389C178.911 194.724 179.28 196.352 179.28 198.273ZM174.967 198.273C174.967 197.136 174.805 196.176 174.482 195.392C174.163 194.608 173.703 194.014 173.101 193.611C172.504 193.207 171.786 193.006 170.945 193.006C170.109 193.006 169.391 193.207 168.788 193.611C168.186 194.014 167.723 194.608 167.399 195.392C167.081 196.176 166.922 197.136 166.922 198.273C166.922 199.409 167.081 200.369 167.399 201.153C167.723 201.937 168.186 202.531 168.788 202.935C169.391 203.338 170.109 203.54 170.945 203.54C171.786 203.54 172.504 203.338 173.101 202.935C173.703 202.531 174.163 201.937 174.482 201.153C174.805 200.369 174.967 199.409 174.967 198.273ZM185.06 207L179.981 189.545H184.643L187.276 200.983H187.421L190.43 189.545H194.231L197.239 201.009H197.384L200.026 189.545H204.68L199.609 207H195.543L192.398 196.415H192.262L189.117 207H185.06Z" fill="#44B755"/>
</g>
<defs>
<filter id="filter0_di_58_643" x="77.4258" y="70.9446" width="198.686" height="182.685" filterUnits="userSpaceOnUse" color-interpolation-filters="sRGB">
<feFlood flood-opacity="0" result="BackgroundImageFix"/>
<feColorMatrix in="SourceAlpha" type="matrix" values="0 0 0 0 0 0 0 0 0 0 0 0 0 0 0 0 0 0 127 0" result="hardAlpha"/>
<feOffset dy="-1"/>
<feGaussianBlur stdDeviation="1"/>
<feComposite in2="hardAlpha" operator="out"/>
<feColorMatrix type="matrix" values="0 0 0 0 0 0 0 0 0 0 0 0 0 0 0 0 0 0 0.05 0"/>
<feBlend mode="normal" in2="BackgroundImageFix" result="effect1_dropShadow_58_643"/>
<feBlend mode="normal" in="SourceGraphic" in2="effect1_dropShadow_58_643" result="shape"/>
<feColorMatrix in="SourceAlpha" type="matrix" values="0 0 0 0 0 0 0 0 0 0 0 0 0 0 0 0 0 0 127 0" result="hardAlpha"/>
<feOffset dy="4"/>
<feGaussianBlur stdDeviation="2"/>
<feComposite in2="hardAlpha" operator="arithmetic" k2="-1" k3="1"/>
<feColorMatrix type="matrix" values="0 0 0 0 0 0 0 0 0 0 0 0 0 0 0 0 0 0 0.25 0"/>
<feBlend mode="normal" in2="shape" result="effect2_innerShadow_58_643"/>
</filter>
<clipPath id="clip0_58_643">
<rect width="361" height="300" fill="white" transform="translate(0.5)"/>
</clipPath>
</defs>
</svg>
